<?xml version="1.0" encoding="UTF-8" standalone="no"?>
<!-- Generator: Adobe Illustrator 15.1.0, SVG Export Plug-In . SVG Version: 6.00 Build 0)  -->

<svg
   xmlns:dc="http://purl.org/dc/elements/1.1/"
   xmlns:cc="http://creativecommons.org/ns#"
   xmlns:rdf="http://www.w3.org/1999/02/22-rdf-syntax-ns#"
   xmlns:svg="http://www.w3.org/2000/svg"
   xmlns="http://www.w3.org/2000/svg"
   xmlns:sodipodi="http://sodipodi.sourceforge.net/DTD/sodipodi-0.dtd"
   xmlns:inkscape="http://www.inkscape.org/namespaces/inkscape"
   version="1.1"
   id="Layer_1"
   x="0px"
   y="0px"
   width="98.576218"
   height="91.174507"
   viewBox="0 0 98.576218 91.174507"
   enable-background="new 0 0 396 222"
   xml:space="preserve"
   inkscape:version="0.48.2 r9819"
   sodipodi:docname="Pgh Zoo.svg"><metadata
   id="metadata3121"><rdf:RDF><cc:Work
       rdf:about=""><dc:format>image/svg+xml</dc:format><dc:type
         rdf:resource="http://purl.org/dc/dcmitype/StillImage" /></cc:Work></rdf:RDF></metadata><defs
   id="defs3119" /><sodipodi:namedview
   pagecolor="#ffffff"
   bordercolor="#666666"
   borderopacity="1"
   objecttolerance="10"
   gridtolerance="10"
   guidetolerance="10"
   inkscape:pageopacity="0"
   inkscape:pageshadow="2"
   inkscape:window-width="923"
   inkscape:window-height="645"
   id="namedview3117"
   showgrid="false"
   fit-margin-top="5"
   fit-margin-left="5"
   fit-margin-right="5"
   fit-margin-bottom="5"
   inkscape:zoom="2.2070303"
   inkscape:cx="-8.2853872"
   inkscape:cy="48.637608"
   inkscape:window-x="0"
   inkscape:window-y="0"
   inkscape:window-maximized="0"
   inkscape:current-layer="Layer_1" />
<g
   id="g3055"
   transform="matrix(2.4287419,0,0,2.4287419,-112.77941,-86.618333)">
	<g
   id="g3057">
		<g
   id="g3059">
			<g
   id="g3061">
				<g
   id="g3063">
					<path
   d="m 64.366,48.712 c -0.233,-0.021 -0.131,0.11 -0.285,0.153 -0.157,0.047 -0.189,0.067 -0.182,0.164 0.007,0.097 0.084,0.22 0.157,0.271 0.069,0.054 0.149,0.137 0.219,0.197 0.073,0.057 0.255,0 0.339,-0.034 0.084,-0.033 0.059,-0.063 0.091,-0.06 0.033,0.007 0.033,0.033 0.037,0.101 0.007,0.063 -0.069,0.11 -0.059,0.18 0.015,0.074 -0.025,0.137 0.08,0.241 0.102,0.104 0.183,0.177 0.274,0.214 0.091,0.04 0.2,0.248 0.284,0.288 0.084,0.037 0.109,-0.007 0.044,-0.054 -0.062,-0.043 0.007,-0.157 -0.037,-0.214 -0.047,-0.057 -0.059,-0.184 -0.073,-0.26 C 65.244,49.822 65.178,49.628 65.128,49.555 65.073,49.485 65.12,49.354 65.099,49.284 65.081,49.21 64.982,49.25 64.931,49.14 64.88,49.03 64.742,49.073 64.683,48.963 64.625,48.852 64.53,48.725 64.366,48.712 m 1.915,-2.884 h -0.018 c -0.059,0.027 0.007,0.184 0.037,0.267 0.033,0.084 0.117,0.091 0.117,0.091 0,0 0.098,0.22 0.262,0.274 0.055,0.017 0.127,-0.034 0.183,-0.137 0.051,-0.104 -0.088,-0.241 -0.164,-0.317 -0.11,-0.11 -0.19,0 -0.193,-0.097 -0.005,-0.095 -0.151,-0.118 -0.224,-0.081 z m 9.474,-1.217 c 0.062,-0.04 0.171,-0.063 0.186,-0.023 0.004,0.01 0.007,0.017 0.015,0.023 0.037,0.043 0.099,0.01 0.117,0.054 0.018,0.054 0.069,0.077 0.117,0.073 0.073,-0.006 0.026,-0.083 0.124,-0.067 0.051,0.014 0.043,-0.026 0.037,-0.06 -0.007,-0.03 -0.015,-0.057 0.014,-0.05 0.066,0.013 0.091,-0.097 0.157,-0.033 0.033,0.037 0.055,0.06 0.073,0.083 0.015,0.02 0.022,0.043 0.029,0.074 0.014,0.067 0.022,0.117 0.117,0.11 0.098,-0.006 0.073,-0.057 0.149,-0.057 0.081,0 0.215,-0.053 0.274,0.037 0.058,0.093 -0.041,0.204 0.04,0.217 0.077,0.01 0.099,0.017 0.099,0.077 0,0.057 0.376,0.013 0.409,0.034 0.033,0.016 0.003,0.057 0.065,0.057 0.058,0 0.127,-0.117 0.241,-0.11 0.109,0.006 0.095,0.13 0.142,0.214 0.044,0.083 0.033,0.144 0.15,0.137 0.117,-0.007 0.091,0.057 0.167,0.057 0.076,0 0.299,-0.003 0.357,0.04 0.058,0.047 0.04,0.15 0.015,0.187 -0.029,0.04 -0.087,0.047 -0.091,0.114 0,0.077 -0.059,0.187 0.004,0.194 0.065,0.007 0.054,0.124 0.131,0.137 0.077,0.013 -0.014,0.05 -0.018,0.123 -0.007,0.071 0.018,0.111 0.069,0.154 0.051,0.047 0.113,0.041 0.099,0.09 -0.015,0.054 -0.091,0.054 -0.077,0.124 0.011,0.074 0.069,0.053 0.109,0.053 0.04,0 -0.007,0.041 0.051,0.047 0.059,0.003 0.081,0.104 0.047,0.134 -0.033,0.033 -0.157,0.04 -0.164,0.073 -0.007,0.03 -0.073,0.057 -0.131,0.043 -0.058,-0.014 -0.161,-0.07 -0.211,-0.057 -0.055,0.013 0.025,0.194 -0.026,0.221 -0.08,0.04 -0.087,0.09 -0.183,0.083 -0.098,-0.007 -0.113,-0.027 -0.171,-0.077 -0.059,-0.053 -0.153,-0.07 -0.251,-0.07 -0.099,0 -0.223,0.03 -0.223,0.077 0,0.043 0.167,0.04 0.189,0.07 0.065,0.094 0.04,0.137 -0.015,0.177 -0.051,0.037 -0.076,0.118 -0.011,0.154 0.065,0.041 0.157,-0.05 0.273,-0.077 0.117,-0.026 0.193,-0.04 0.273,0.027 0.077,0.063 0.103,0.207 0.063,0.234 -0.037,0.027 -0.143,0.157 -0.063,0.18 0.077,0.027 0.168,-0.117 0.244,-0.117 0.081,0 0.183,0.117 0.223,0.117 0.037,0 0.208,-0.207 0.376,-0.167 0.167,0.041 0.142,0.077 0.156,0.167 0.011,0.09 -0.04,0.197 0.066,0.248 l 0.022,0.013 c 0.099,0.057 0.212,0.174 0.212,0.221 0,0.054 -0.091,0.17 -0.157,0.184 -0.065,0.013 -0.208,0.05 -0.193,0.117 0.011,0.063 0.087,0.117 0.219,0.104 0.131,-0.013 0.288,0.014 0.35,0.05 0.065,0.04 0.171,0.157 0.117,0.221 -0.051,0.067 -0.245,0.234 -0.245,0.314 0,0.077 0.153,0.207 0.025,0.351 -0.131,0.144 -0.116,-0.027 -0.259,-0.027 -0.146,0 -0.288,-0.027 -0.299,0.027 -0.015,0.05 0.077,0.167 -0.015,0.247 -0.091,0.077 -0.167,0.05 -0.259,0.114 -0.091,0.067 0.041,0.144 -0.051,0.184 -0.091,0.04 -0.263,0.117 -0.379,0.04 -0.117,-0.081 -0.127,-0.274 -0.273,-0.274 -0.018,0 -0.142,0.208 -0.062,0.248 0.076,0.037 0.066,0.15 -0.014,0.181 -0.249,0.09 -0.299,-0.037 -0.519,-0.024 -0.222,0.01 -0.105,0.05 -0.302,0.05 -0.194,0 -0.478,-0.207 -0.635,-0.261 -0.157,-0.05 -0.613,0.034 -0.923,-0.063 -0.332,-0.107 -0.678,-0.324 -0.886,-0.421 -0.127,-0.06 -0.204,-0.033 -0.204,-0.033 0,0 0.065,0.157 0.051,0.284 -0.026,0.221 -0.248,0.508 -0.248,0.508 0,0 0.117,-0.298 0.105,-0.441 -0.014,-0.144 -0.065,-0.208 -0.065,-0.208 0,0 -0.142,-0.04 -0.142,-0.08 0,-0.037 0.077,-0.077 0.036,-0.26 -0.036,-0.181 -0.35,-0.843 -0.649,-0.806 -0.299,0.04 -0.689,0.274 -0.791,0.431 -0.106,0.154 -0.066,0.234 -0.168,0.284 -0.106,0.054 -0.313,0.054 -0.313,0.054 0,0 0.116,-0.067 0.193,-0.17 0.08,-0.104 0.066,-0.221 0.106,-0.271 0.04,-0.054 0.149,-0.137 0.135,-0.231 -0.011,-0.09 -0.109,-0.161 -0.186,-0.201 -0.081,-0.037 -0.157,-0.09 -0.208,-0.077 -0.051,0.013 -0.289,0.311 -0.405,0.364 -0.117,0.05 -0.816,0 -1.024,0.077 -0.208,0.081 -0.689,0.264 -0.912,0.338 -0.35,0.117 -0.686,0.488 -0.883,0.631 -0.193,0.144 -0.507,0.241 -0.609,0.421 -0.025,0.04 -0.043,0.104 -0.058,0.181 -0.062,0.267 -0.087,0.691 -0.139,0.832 -0.167,0.474 -1.867,1.25 -1.896,2.042 -0.007,0.234 0.259,0.558 0.416,0.869 0.157,0.314 0.229,0.508 0.313,0.611 0.142,0.184 0.27,0.117 0.361,0.184 0.036,0.023 0.04,0.107 0.029,0.211 -0.018,0.16 -0.065,0.368 -0.065,0.464 0,0.154 0.051,0.144 0.051,0.144 0,0 -0.058,0.42 0.058,0.564 0.117,0.14 0.277,0.167 0.277,0.167 l -0.025,-0.097 c 0,0 0.047,0.046 0.113,0.07 0.066,0.027 0.128,0.034 0.128,0.034 0,0 -0.084,-0.221 0,-0.208 0.084,0.014 0.164,0.118 0.281,0.157 0.117,0.037 0.183,0.003 0.19,0.003 0.003,0 0.109,0.02 0.27,0.02 0.164,0 0.175,-0.037 0.182,-0.05 0.008,-0.013 -0.233,-0.19 -0.142,-0.267 0.091,-0.077 0.241,0.037 0.383,0.033 0.223,-0.007 0.365,-0.364 0.697,-0.371 0.332,-0.007 0.416,0.294 0.416,0.294 0,0 0.135,-0.107 0.142,-0.19 0.007,-0.081 -0.073,-0.134 -0.033,-0.154 0.069,-0.04 0.249,0.217 0.281,0.214 0.037,-0.007 0.063,-0.164 0.063,-0.164 0,0 0.171,-0.021 0.306,0.053 0.139,0.07 0.263,0.208 0.383,0.311 0.124,0.104 0.262,0.104 0.262,0.104 0,0 -0.04,-0.097 -0.014,-0.164 0.025,-0.063 0.098,-0.09 0.098,-0.09 0,0 0.019,0.144 0.128,0.2 0.113,0.06 0.204,0.06 0.204,0.06 0,0 -0.033,-0.15 -0.007,-0.187 0.04,-0.06 0.099,-0.104 0.099,-0.104 0,0 0.087,0.077 0.229,0.127 0.226,0.083 0.58,0.224 0.613,0.605 0.051,0.625 -0.135,0.591 -0.124,1.059 0.015,0.471 0.066,0.632 0.248,0.853 0.183,0.221 0.365,0.428 0.401,0.648 0.021,0.12 0.033,0.294 0.036,0.424 -0.718,-0.077 -1.521,0.003 -1.943,0.054 -0.187,0.02 -0.146,0.097 -1.127,0.097 -0.127,0 -0.795,-0.074 -0.922,-0.074 -0.354,0 -0.383,0.024 -0.737,0.024 -0.127,0 -0.201,-0.044 -0.328,-0.044 -0.401,0 -0.912,0.077 -1.316,0.131 h -0.179 c -0.018,-0.007 -0.033,-0.01 -0.047,-0.01 -0.204,-0.01 -0.46,-0.097 -0.438,-0.268 0.026,-0.207 0.288,-0.057 0.288,-0.13 0,-0.054 -0.193,-0.057 -0.193,-0.057 0,0 -0.109,0.037 0,-0.047 0.127,-0.097 0.183,-0.07 0.175,-0.114 -0.019,-0.113 -0.27,0.104 -0.233,0.041 0.062,-0.101 0.102,-0.181 0.164,-0.257 0.087,-0.114 0,-0.121 -0.037,-0.063 -0.036,0.057 -0.175,0.2 -0.12,0.09 0.037,-0.07 0.025,-0.114 -0.055,-0.007 -0.073,0.097 -0.059,0.03 -0.047,-0.023 0.011,-0.057 0.047,-0.14 0.087,-0.197 0.065,-0.097 -0.036,-0.106 -0.047,-0.057 -0.007,0.027 -0.033,0.05 -0.065,0.083 0.007,-0.023 0.007,-0.047 0.007,-0.07 0,-0.06 -0.037,-0.09 -0.077,-0.053 0,0.063 -0.022,0.207 -0.07,0.317 -0.007,0.02 -0.047,0.083 -0.043,0.104 -0.062,0.12 -0.12,0.221 -0.153,0.314 -0.047,0.121 -0.375,0.378 -0.689,0.405 h -0.029 c -0.157,-0.05 0.638,-0.334 -0.135,-0.221 -0.116,0.017 -0.116,0.14 -0.576,0.164 -0.364,0.02 -0.43,-0.157 -0.543,-0.1 -0.047,0.023 -0.408,0.057 -0.671,0.097 -0.839,0.127 -0.832,-0.026 -1.068,-0.026 -0.547,0 -0.682,0.077 -1.229,0.077 -0.89,0 -0.704,-0.15 -1.59,-0.15 h -0.821 c -0.379,0 -0.365,0.124 -0.744,0.124 -0.201,0 -0.383,-0.053 -0.547,-0.117 0.117,-0.762 0.383,-0.602 0.383,-0.602 0,0 0.083,-0.371 0.032,-0.532 -0.069,-0.21 -0.069,-0.257 0.007,-0.274 0.117,-0.026 0.27,0.184 0.27,0.184 0,0 0.066,-0.204 0.117,-0.521 0.091,-0.582 0.43,-1.337 1.211,-1.35 0.74,-0.014 0.802,0.204 1.546,0.428 1.222,0.371 1.429,0.284 1.429,0.284 l -0.083,0.103 c 0.201,-0.02 0.368,-0.146 0.375,-0.146 0.007,0 -0.018,0.13 -0.124,0.217 -0.105,0.09 -0.259,0.141 -0.251,0.141 0.266,0.013 0.54,-0.104 0.54,-0.104 0,0 0.007,0.053 -0.008,0.09 -0.018,0.04 -0.055,0.073 -0.055,0.073 0,0 0.186,-0.01 0.354,-0.1 0.164,-0.087 0.248,-0.13 0.273,-0.11 0.025,0.02 0.007,0.087 -0.019,0.124 -0.025,0.04 -0.062,0.087 -0.058,0.087 0.004,0 0.215,-0.083 0.361,-0.204 0.15,-0.124 0.292,-0.224 0.416,-0.241 0.251,-0.03 0.427,-0.057 0.591,-0.194 0.248,-0.207 0.266,-0.568 0.339,-0.755 0.102,-0.264 0.241,-0.291 0.244,-0.455 0.007,-0.161 -0.102,-0.227 -0.175,-0.227 -0.069,0 -0.233,0.066 -0.277,0.033 -0.047,-0.033 -0.047,-0.193 0.003,-0.22 0.055,-0.027 0.263,0 0.347,0 0.084,0 0.117,-0.03 0.109,-0.074 -0.011,-0.074 0.007,-0.164 0.025,-0.254 0.015,-0.07 0.026,-0.144 0.026,-0.211 0,-0.157 -0.033,-0.233 -0.084,-0.334 -0.051,-0.097 -0.182,-0.154 -0.182,-0.154 0,0 0.058,-0.364 -0.037,-0.501 -0.099,-0.137 -0.219,-0.211 -0.219,-0.211 0,0 -0.135,-0.511 -0.369,-0.468 -0.197,0.037 -0.233,0.141 -0.423,0.047 -0.186,-0.09 -0.343,-0.475 -0.35,-0.562 -0.007,-0.083 0.182,-0.268 0.047,-0.268 -0.139,0 -0.109,0.104 -0.109,0.147 0,0.046 -0.007,0.213 -0.215,0.213 -0.208,0 -0.23,-0.12 -0.233,-0.18 -0.007,-0.11 0.219,-0.234 0.128,-0.277 -0.091,-0.047 -0.183,0.04 -0.226,0.083 -0.047,0.04 -0.04,0.117 -0.124,0.117 -0.084,0 -0.102,-0.054 -0.102,-0.087 0,-0.083 0.043,-0.157 0.2,-0.257 0.252,-0.164 1.255,-0.09 1.255,-0.301 0,-0.133 -0.215,-0.173 -0.215,-0.368 0,-0.197 0.069,-0.144 0.062,-0.274 -0.003,-0.13 -0.087,-0.26 -0.201,-0.22 -0.109,0.037 -0.135,-0.034 -0.153,-0.067 -0.021,-0.03 -0.058,-0.188 -0.182,-0.117 -0.157,0.09 -0.346,-0.244 -0.602,-0.501 -0.182,-0.184 -0.375,-0.428 -0.817,-0.712 -0.441,-0.288 -1.167,-0.468 -1.401,-0.548 -0.237,-0.077 -0.445,-0.311 -0.652,-0.388 -0.208,-0.077 -0.103,-0.234 -0.183,-0.391 -0.077,-0.154 -0.266,-0.184 -0.576,-0.337 -0.076,-0.033 -0.153,-0.061 -0.222,-0.07 -0.602,-0.1 -0.682,-0.301 -0.773,-0.294 -0.077,0.006 -0.091,0.15 -0.167,0.144 -0.077,-0.007 -0.241,-0.077 -0.365,-0.11 -0.124,-0.033 -0.307,-0.067 -0.317,-0.033 -0.015,0.033 0.091,0.157 0.051,0.221 -0.04,0.066 -0.467,0 -0.481,0.08 -0.004,0.033 0.025,0.037 0.043,0.05 0.025,0.03 0.029,0.057 0.022,0.097 -0.018,0.1 -0.131,0.124 -0.157,0.17 -0.041,0.074 0.105,-0.023 0.105,0.07 0,0.13 -0.241,0.324 -0.259,0.357 -0.025,0.047 0.033,0.254 -0.073,0.404 -0.103,0.151 -0.934,1.033 -1.273,1.19 -0.087,0.037 -0.179,0.07 -0.277,0.101 -0.281,0.083 -0.583,0.126 -0.788,0.184 -0.273,0.077 -0.547,0.221 -0.714,0.221 -0.091,0 -0.183,-0.023 -0.219,-0.067 -0.029,-0.037 -0.003,-0.09 -0.055,-0.113 -0.099,-0.047 -0.087,-0.147 -0.08,-0.224 0.007,-0.047 0.015,-0.084 -0.004,-0.094 -0.047,-0.027 -0.149,-0.014 -0.149,-0.074 0,-0.057 0.117,-0.077 0.109,-0.137 -0.007,-0.056 -0.168,-0.07 -0.168,-0.173 0,-0.104 0.175,-0.087 0.153,-0.137 -0.018,-0.05 -0.143,0.02 -0.175,-0.006 -0.032,-0.027 -0.018,-0.117 -0.091,-0.097 -0.062,0.017 -0.004,0.107 -0.044,0.144 -0.047,0.037 -0.157,0.006 -0.157,0.006 0,0 -0.018,0.077 -0.186,0.064 -0.171,-0.013 -0.222,-0.04 -0.273,-0.027 -0.055,0.014 -0.08,0.104 -0.142,0.067 -0.066,-0.04 -0.081,-0.157 -0.081,-0.157 0,0 -0.091,0 -0.065,-0.117 0.026,-0.117 0.157,-0.288 0.117,-0.338 -0.037,-0.053 -0.109,0.021 -0.182,-0.026 -0.063,-0.041 -0.037,-0.13 -0.037,-0.13 0,0 -0.087,-0.02 -0.091,-0.117 -0.004,-0.15 0.16,-0.137 0.16,-0.187 0,-0.053 -0.16,-0.13 -0.153,-0.254 0.004,-0.124 0.27,-0.174 0.27,-0.174 0,0 -0.051,-0.184 0.081,-0.274 0.127,-0.09 0.208,-0.067 0.218,-0.11 0.004,-0.007 0,-0.017 -0.003,-0.027 -0.022,-0.06 -0.113,-0.164 -0.007,-0.241 0.124,-0.09 0.54,0.081 0.583,0.027 0.047,-0.053 -0.069,-0.193 0.058,-0.193 0.132,0 0.248,0.05 0.347,0.043 0.095,-0.007 0.179,-0.013 0.325,-0.007 0.142,0.007 0.153,0.041 0.226,0.104 0.073,0.067 0.04,0.137 0.131,0.164 0.091,0.026 0.135,-0.11 0.226,-0.144 0.091,-0.03 0.164,0.013 0.201,-0.014 0.04,-0.023 -0.044,-0.207 -0.033,-0.284 0.015,-0.08 0.073,-0.227 -0.003,-0.311 -0.08,-0.087 -0.23,0.023 -0.267,0.01 -0.04,-0.01 -0.113,-0.141 -0.117,-0.201 -0.021,-0.157 0.059,-0.083 0.063,-0.083 0.007,0 -0.011,-0.07 0.08,-0.137 0.095,-0.07 0.011,-0.15 0.142,-0.15 0.131,0 0.051,0.067 0.102,0.06 0.055,-0.006 0.047,-0.033 0.081,-0.053 0.033,-0.02 0.069,0.033 0.109,0.007 0.04,-0.027 -0.044,-0.151 0.014,-0.194 0.059,-0.047 0.153,-0.07 0.303,-0.07 0.149,0 0.113,0.037 0.197,0.057 0.084,0.02 0.219,-0.053 0.219,-0.083 0,-0.034 -0.109,0 -0.153,-0.034 -0.047,-0.033 -0.124,-0.104 -0.204,-0.104 -0.077,0 -0.124,0.121 -0.27,0.027 -0.091,-0.061 -0.022,-0.137 -0.059,-0.17 -0.04,-0.034 -0.321,0.033 -0.412,-0.034 -0.091,-0.063 -0.208,-0.194 -0.153,-0.264 0.022,-0.033 0.069,-0.07 0.113,-0.104 0.051,-0.04 0.099,-0.073 0.099,-0.087 0,-0.027 -0.095,-0.117 -0.051,-0.214 0.047,-0.097 0.084,-0.09 0.084,-0.09 0,0 -0.018,-0.13 0.022,-0.181 0.037,-0.054 0.083,-0.06 0.095,-0.101 0.015,-0.037 -0.044,-0.25 0.047,-0.277 0.091,-0.027 0.201,-0.104 0.332,-0.111 0.127,-0.006 0.083,0.057 0.142,0.057 0.047,0 0.051,-0.13 0.08,-0.184 0.007,-0.013 0.015,-0.02 0.022,-0.023 0.087,-0.034 0.255,-0.007 0.394,0.023 0.047,0.01 0.091,0.02 0.127,0.027 0.059,0.017 0.095,-0.003 0.124,-0.027 0.041,-0.036 0.065,-0.083 0.109,-0.086 0.077,-0.007 0.044,0.056 0.103,0.056 0.058,0 0.08,-0.07 0.131,-0.097 0.051,-0.026 0.106,0.007 0.139,-0.026 0.033,-0.034 0,-0.261 0.058,-0.318 0.059,-0.06 0.168,-0.027 0.252,0.044 0.084,0.073 0.149,0.24 0.226,0.24 0.08,0 0.047,-0.097 0.117,-0.104 0.073,-0.007 0.189,0.04 0.273,-0.03 0.084,-0.074 -0.026,-0.118 -0.033,-0.231 -0.004,-0.107 0.047,-0.127 0.124,-0.201 0.081,-0.07 0.084,-0.11 0.19,-0.11 0.143,0 0.124,0.117 0.19,0.117 0.062,0 0.062,-0.261 0.135,-0.311 0.073,-0.053 0.208,-0.083 0.273,-0.006 0.065,0.077 -0.007,0.297 0.077,0.357 0.083,0.057 0.189,0.084 0.215,0.047 0.026,-0.04 -0.033,-0.087 0.033,-0.114 0.066,-0.023 0.219,-0.057 0.307,0.02 0.084,0.081 -0.007,0.117 0.069,0.144 0.08,0.027 0,-0.291 0.065,-0.344 0.066,-0.054 0.226,-0.09 0.339,-0.047 0.109,0.047 0.127,0.144 0.233,0.17 0.102,0.026 0.153,0.07 0.193,0.09 0.08,0.04 0.021,0.11 0.055,0.13 0.029,0.02 0.083,-0.013 0.127,0.054 0.047,0.063 -0.025,0.297 0.026,0.317 0.051,0.02 0.083,-0.007 0.138,0.027 0.051,0.03 0.153,0.124 0.219,0.077 0.066,-0.047 -0.043,-0.057 -0.043,-0.164 0,-0.104 0.007,-0.147 0.084,-0.201 0.076,-0.054 0.135,-0.077 0.223,-0.021 0.083,0.061 0.153,0.111 0.153,0.137 0,0.027 -0.011,0.11 0.033,0.097 0.047,-0.013 0.091,-0.07 0.164,-0.07 0.069,0 0.186,0.09 0.186,-0.144 0,-0.234 -0.175,-0.124 -0.266,-0.234 -0.091,-0.11 -0.095,-0.214 -0.044,-0.214 0.103,0 0.193,-0.07 -0.04,-0.07 -0.226,0 -0.161,0 -0.201,-0.041 -0.04,-0.04 -0.033,-0.117 -0.033,-0.117 0,0 -0.044,0.007 -0.087,-0.017 -0.019,-0.01 -0.04,-0.023 -0.055,-0.046 -0.051,-0.08 0.025,-0.127 0.051,-0.157 0.026,-0.033 -0.033,-0.097 0,-0.13 0.033,-0.033 0.168,0.034 0.201,-0.006 0.033,-0.04 -0.037,-0.268 0,-0.311 0.04,-0.047 0.183,-0.02 0.208,-0.053 0.029,-0.034 -0.069,-0.234 0.073,-0.311 0.142,-0.081 0.241,0.04 0.241,0.04 0,0 0.215,0.063 0.299,0.023 0.091,-0.04 -0.025,-0.157 0.033,-0.234 0.004,-0.007 0.011,-0.013 0.019,-0.02 0.08,-0.057 0.113,-0.037 0.211,0.02 l 0.037,0.02 c 0.127,0.07 0.022,0.251 0.077,0.254 0.149,0.007 0.051,-0.047 0.105,-0.097 0.051,-0.054 0.084,-0.06 0.142,-0.117 0.059,-0.06 0.109,-0.047 0.109,-0.053 0.019,-0.023 0.022,-0.063 -0.033,-0.104 -0.025,-0.021 -0.043,-0.331 -0.007,-0.351 0.04,-0.02 0.171,-0.026 0.223,0.007 0.052,0.033 0.084,0.117 0.116,0.09 0.033,-0.023 0.125,-0.097 0.125,-0.201 0,-0.104 0.015,-0.164 0.109,-0.17 0.099,-0.003 0.197,-0.017 0.241,0.013 0.047,0.034 -0.025,0.09 0.047,0.124 0.069,0.034 0.084,-0.007 0.149,0.013 0.062,0.021 0.043,0.111 0.091,0.111 0.044,0 0.055,-0.141 0.087,-0.144 0.08,-0.003 -0.011,-0.127 0.113,-0.117 0.124,0.014 0.142,0.087 0.142,0.13 0,0.047 -0.018,0.087 0.044,0.091 0.066,0.006 0.033,-0.054 0.157,-0.064 0.175,-0.013 0.091,0.104 0.197,0.111 0.102,0.006 0.117,-0.057 0.186,-0.097 0.073,-0.04 0.182,0 0.189,0 0.007,0 0.065,-0.174 0.201,-0.124 0.138,0.053 0.015,0.104 0.098,0.11 0.084,0.007 0.103,-0.07 0.077,-0.11 -0.025,-0.04 -0.043,-0.084 -0.043,-0.181 0,-0.1 0.098,-0.137 0.098,-0.137 0,0 -0.015,-0.117 0.044,-0.13 0.058,-0.013 0.189,-0.047 0.215,0 0.025,0.047 0.076,0.167 0.127,0.194 0.055,0.027 0.113,-0.161 0.229,-0.147 0.117,0.01 0.135,0.09 0.15,0.127 0.011,0.04 -0.015,0.144 0.043,0.13 0.058,-0.013 0.124,-0.057 0.124,-0.09 0,-0.033 -0.058,-0.046 -0.051,-0.104 0.018,-0.137 0.135,-0.124 0.135,-0.124 0,0 -0.025,-0.054 0.099,-0.054 0.124,0 0.164,-0.023 0.193,0.061 0.033,0.083 0.041,0.164 -0.003,0.181 -0.047,0.02 -0.065,0.073 -0.065,0.073 0,0 0.142,0.026 0.186,-0.034 0.048,-0.057 0.132,-0.117 0.183,-0.124 0.124,-0.013 0.091,0.214 0.117,0.248 0.026,0.033 0.113,0.11 0.19,0.117 0.076,0.007 0.142,0.034 0.167,0.11 0.029,0.077 0.022,0.164 0.087,0.214 0.062,0.053 0.146,0 0.161,0.047 0.014,0.04 0.091,0.026 0.109,0.104 0.022,0.077 0.066,0.117 0.124,0.161 0.011,0.01 0.029,0.02 0.04,0.033 0.033,0.05 0.084,0.11 0.091,0 0.007,-0.167 0.069,-0.214 0.2,-0.2 0.131,0.013 0.117,0.063 0.194,0.063 0.076,0 0.014,0.124 0.083,0.137 h 0.029 c 0.076,-0.013 0.055,-0.154 0.102,-0.154 0.055,0 0,-0.234 0.08,-0.254 0.077,-0.02 0.187,0.037 0.208,0 0.018,-0.04 -0.051,-0.087 0.025,-0.104 0.135,-0.034 0.143,0.037 0.193,0.043 0.051,0.006 0.066,-0.15 0.208,-0.15 0.143,0 0.131,0.113 0.171,0.177 0.036,0.067 0.091,0.194 0.142,0.194 0.051,0 0.037,-0.154 0.091,-0.154 0.051,0 0.109,-0.007 0.167,0.05 0.059,0.06 0.117,0.151 0.197,0.197 0.077,0.043 0.325,-0.006 0.391,0.003 0.062,0.014 0.011,0.087 0.062,0.101 0.026,0.003 0.026,0.026 0.026,0.05 0,0.027 -0.004,0.057 0.021,0.06 0.044,0.007 -0.021,0.264 0.033,0.264 0.051,0 0.033,0.144 0.077,0.137 0.044,-0.007 0.033,0.221 -0.007,0.221 -0.036,0 -0.124,0.066 -0.208,0.053 -0.084,-0.013 -0.051,0.063 -0.103,0.05 -0.054,-0.01 -0.171,0.073 -0.099,0.1 0.073,0.023 0.398,-0.034 0.401,0.007 0.007,0.037 0,0.11 0.059,0.133 0.062,0.027 0.04,0.074 0.091,0.074 0.055,0 0.04,-0.097 0.099,-0.097 0.058,0 0.033,-0.054 0.175,-0.06 0.146,-0.007 0.124,0.11 0.205,0.103 0.076,-0.006 0.043,-0.037 0.186,-0.05 0.142,-0.013 0.058,0.043 0.08,0.097 0.011,0.03 0.022,0.066 0.04,0.093 0.015,0.02 0.029,0.033 0.047,0.03 0.019,-0.004 0.029,-0.014 0.044,-0.03 0.025,-0.03 0.047,-0.077 0.08,-0.12 0.055,-0.063 0.113,-0.104 0.106,-0.144 -0.007,-0.037 -0.084,-0.187 -0.047,-0.227 0.04,-0.037 0.255,-0.033 0.295,0.007 0.091,0.104 0.193,0.08 0.208,0.13 0.018,0.07 -0.029,0.228 0.011,0.268 0.04,0.04 0.091,0 0.135,-0.047 0.047,-0.043 -0.003,-0.11 0.047,-0.11 0.05,0 0.175,-0.014 0.201,0.033 0.015,0.027 0.007,0.127 0.007,0.21 0,0.06 0.004,0.114 0.025,0.12 0.051,0.021 0.149,0.041 0.167,0.007 0.015,-0.023 0.004,-0.087 0.011,-0.127 0.004,-0.013 0.011,-0.027 0.022,-0.03 0.048,-0.013 0.062,-0.04 0.204,-0.057 0.113,-0.017 0.189,0.04 0.23,0.087 0.029,0.033 0.04,0.06 0.04,0.06 0,0 0.139,-0.05 0.288,-0.043 0.149,0.007 0.149,0.104 0.24,0.144 0.092,0.037 0.117,-0.014 0.15,-0.067 0.033,-0.05 0.015,-0.106 0.102,-0.083 0.124,0.033 0.248,-0.054 0.259,0.07 0.015,0.124 -0.018,0.241 0.008,0.248 0.026,0.007 0.08,-0.013 0.138,-0.063 0.059,-0.054 0.201,-0.061 0.285,0 0.084,0.057 0.099,0.117 0.091,0.194 -0.008,0.077 -0.066,0.137 -0.051,0.17 0.011,0.03 0.102,0.083 0.182,0.134 0.077,0.053 0.161,0.066 0.179,0.19 0.029,0.167 -0.109,0.07 -0.102,0.137 0.003,0.03 0.007,0.067 0.007,0.101 0,0.033 -0.004,0.057 -0.022,0.06 -0.033,0.006 -0.091,0.006 -0.095,0.047 -0.008,0.063 0.032,0.137 0.003,0.167 -0.025,0.033 -0.153,0.087 -0.109,0.11 0.047,0.027 0.164,-0.037 0.167,0.006 0.007,0.047 0.022,0.144 -0.011,0.144 -0.109,0 -0.175,0.117 -0.106,0.117 0.073,0 0.058,0 0.058,0.067 0,0.063 -0.018,0.154 0.087,0.147 0.103,-0.006 0.241,-0.077 0.234,-0.14 -0.007,-0.067 -0.106,-0.06 -0.113,-0.087 -0.003,-0.023 0,-0.137 0.033,-0.201 0.033,-0.063 0.143,-0.144 0.237,-0.157 0.087,-0.013 0.167,-0.063 0.16,-0.117 -0.007,-0.05 -0.025,-0.11 0.033,-0.154 l 0.017,-0.008 z m -6.341,14.181 c 0,0 -0.007,0 -0.069,0.003 -0.047,0 -0.084,-0.003 -0.113,-0.01 -0.065,-0.017 -0.131,-0.037 -0.211,-0.067 -0.036,-0.017 -0.094,-0.083 -0.087,-0.04 0.004,0.053 0.041,0.13 0.081,0.147 0.036,0.013 0.036,0.01 0.036,0.01 0,0 -0.018,0.01 -0.047,0.03 -0.081,0.06 -0.146,0.083 -0.157,0.097 0.069,0.023 0.113,0.021 0.153,0.017 0.059,-0.007 0.11,-0.023 0.135,-0.017 0.025,0.007 0.066,-0.01 0.113,0 0.047,0.013 0.142,0.04 0.237,0.074 0.095,0.037 0.368,0.07 0.368,0.07 0,0 -0.251,0.03 -0.459,-0.067 -0.011,-0.007 -0.044,0.017 -0.055,0.02 -0.011,0.003 -0.018,0.01 -0.018,0.01 0,0 0.043,0.01 0.033,0.01 -0.011,0.003 -0.022,0.007 -0.022,0.007 0,0 0.051,0.01 0.033,0.013 -0.015,0.003 -0.025,0 -0.018,0.007 0.007,0.01 0.033,0.026 0.059,0.037 0.025,0.01 0.069,0.02 0.105,0.017 0.037,0 0.106,0 0.164,-0.003 0.059,-0.007 0.106,-0.017 0.149,-0.023 0.044,-0.003 0.066,-0.017 0.103,-0.007 0.04,0.007 0.051,0.013 0.109,0.023 l 0.131,0.017 c 0,0 -0.051,0.01 -0.073,0.02 -0.018,0.007 -0.047,-0.01 -0.047,-0.01 l -0.036,0.017 c 0,0 0.003,0.006 -0.022,0.017 -0.025,0.014 -0.073,0.03 -0.094,0.043 -0.018,0.013 -0.047,0.027 -0.063,0.04 -0.014,0.017 -0.021,0.02 0,0.014 0.026,-0.007 0.033,-0.007 0.044,-0.014 0.015,-0.003 0.059,-0.01 0.077,-0.013 0.018,-0.007 0.135,-0.04 0.135,-0.04 l -0.051,0.033 c 0,0 -0.051,0.034 -0.099,0.053 -0.051,0.017 -0.087,0.044 -0.113,0.047 -0.025,0.003 -0.021,0.007 0.015,0.007 0.033,0 0.055,-0.017 0.069,-0.014 0.011,0.007 0.04,0 0.055,-0.006 0.047,-0.017 0.095,-0.04 0.124,-0.05 0.029,-0.01 0.077,-0.034 0.139,-0.067 0.058,-0.034 0.091,-0.037 0.109,-0.054 0.018,-0.017 0.033,-0.02 0.047,-0.023 0.102,-0.017 0,-0.077 0.022,-0.063 0.022,0.01 0.077,0.047 0.091,0.043 0.011,-0.003 0.018,-0.007 0.025,-0.007 0.011,-0.003 0.044,-0.006 0.058,-0.006 0.015,-0.003 0.044,-0.014 0.099,-0.027 0.055,-0.017 0.127,-0.047 0.146,-0.067 0.018,-0.017 -0.051,-0.003 -0.055,-0.017 0,-0.017 0.043,-0.02 0.043,-0.02 0,0 -0.025,-0.05 -0.051,-0.08 -0.029,-0.027 -0.081,-0.064 -0.139,-0.097 -0.058,-0.03 -0.124,-0.063 -0.167,-0.08 -0.033,-0.014 -0.099,-0.027 -0.135,-0.034 0.029,0.003 0.065,0 0,-0.053 -0.04,-0.034 -0.077,-0.07 -0.117,-0.067 -0.037,0.003 -0.077,0.013 -0.095,0.02 l -0.069,0.023 c -0.018,0.003 -0.047,0.01 -0.062,0.017 -0.019,0.007 -0.044,0.013 -0.059,0.01 -0.011,0 -0.047,0.003 -0.065,0.003 -0.019,0 -0.051,0 -0.073,0 -0.022,0 -0.059,0.003 -0.087,0.003 -0.029,0.003 -0.055,0 -0.084,0 -0.025,0 -0.072,-0.01 -0.098,-0.014 -0.026,-0.003 -0.062,-0.013 -0.091,-0.013 -0.029,0.003 -0.041,0.01 -0.055,0.013 -0.015,0.004 -0.021,0.014 -0.037,0.027 -0.011,-0.003 -0.014,0.003 0,0.017 v 0.027 l 0.019,0.03 c 0,0 0.022,0.041 0.142,-0.017 0.125,-0.057 0.354,-0.04 0.354,-0.04 0,0 -0.149,-0.003 -0.248,0.03 -0.087,0.023 -0.181,0.064 -0.181,0.064 z m -2.043,0.193 c 0.004,0.034 -0.025,0.083 -0.025,0.09 0,0 0.033,0.017 0.117,-0.114 0.011,-0.02 0.059,-0.154 0.08,-0.194 0.022,-0.037 0.051,-0.06 0.091,-0.083 0.047,-0.03 0.077,-0.057 0.146,-0.087 0.189,-0.083 -0.149,0.144 -0.029,0.094 0.087,-0.034 0.186,-0.06 0.288,-0.161 0.055,-0.05 0.15,-0.023 0.186,-0.03 0.083,-0.017 0.182,-0.054 0.047,0.013 0.011,0.047 -0.047,0.15 -0.015,0.15 0.044,0 0.088,-0.05 0.142,-0.083 0.055,-0.033 0.125,-0.114 0.146,-0.137 0.018,-0.023 0.127,-0.046 0.189,-0.063 0.062,-0.02 0.127,-0.017 0.204,-0.023 0.08,-0.006 0.106,-0.05 0.135,-0.04 0.029,0.007 0.087,-0.02 0.109,-0.043 0.022,-0.023 -0.025,-0.033 -0.025,-0.033 0,0 -0.011,-0.013 0.003,-0.037 0.029,-0.041 -0.014,-0.041 -0.043,-0.094 -0.026,-0.04 -0.051,-0.04 -0.15,-0.077 -0.102,-0.037 -0.222,-0.06 -0.405,-0.073 -0.182,-0.017 -0.321,0.03 -0.313,0.026 0.069,-0.033 0.055,-0.046 -0.047,-0.043 -0.04,0.003 -0.149,-0.003 -0.131,0.017 0.018,0.017 0.025,0.09 -0.004,0.101 -0.029,0.01 -0.062,0.023 -0.124,0.056 -0.065,0.034 -0.12,0.084 -0.12,0.084 0,0 -0.022,0.013 -0.069,0.017 -0.044,0.006 -0.095,0.023 -0.135,0.057 -0.044,0.034 0.073,0.061 0.073,0.061 0,0 -0.037,0.046 -0.081,0.097 -0.047,0.05 -0.073,0.097 -0.113,0.121 -0.037,0.023 -0.08,0.037 -0.117,0.04 -0.04,0.007 -0.062,0.014 -0.077,0.037 -0.018,0.023 0.015,0.006 0.059,0.017 0.029,0.007 -0.077,0.063 -0.099,0.081 -0.019,0.02 -0.047,0.03 -0.069,0.04 -0.022,0.01 -0.04,0.02 -0.04,0.02 0,0 0.062,0.021 0.12,0.021 0.025,0 0.091,0.003 0.099,0.026 0.004,0.022 -0.017,0.056 -0.003,0.149 z m 0.04,0.705 c 0,0.027 0.022,0.05 0.047,0.05 0.029,0 0.051,-0.023 0.051,-0.05 0,-0.026 -0.022,-0.05 -0.051,-0.05 -0.025,0 -0.047,0.024 -0.047,0.05 z m -0.616,-0.845 c 0,0.023 0.019,0.043 0.04,0.043 0.022,0 0.04,-0.02 0.04,-0.043 0,-0.02 -0.018,-0.04 -0.04,-0.04 -0.022,0 -0.04,0.02 -0.04,0.04 z m 0.689,0.588 c 0,0.03 0.022,0.05 0.051,0.05 0.025,0 0.047,-0.02 0.047,-0.05 0,-0.027 -0.021,-0.05 -0.047,-0.05 -0.029,0 -0.051,0.023 -0.051,0.05 z M 67.298,59.41 c 0,0.016 0.011,0.026 0.025,0.026 0.015,0 0.026,-0.01 0.026,-0.026 0,-0.014 -0.011,-0.027 -0.026,-0.027 -0.014,0 -0.025,0.013 -0.025,0.027 z M 67,58.314 c 0,0.02 0.014,0.033 0.037,0.033 0.018,0 0.033,-0.014 0.033,-0.033 0,-0.02 -0.015,-0.037 -0.033,-0.037 -0.023,0 -0.037,0.017 -0.037,0.037 z m 0.021,0.457 c 0,0.02 0.019,0.037 0.04,0.037 0.019,0 0.037,-0.017 0.037,-0.037 0,-0.02 -0.018,-0.04 -0.037,-0.04 -0.021,0 -0.04,0.02 -0.04,0.04 z m -0.372,-0.103 c 0,0.02 0.018,0.037 0.04,0.037 0.018,0 0.037,-0.017 0.037,-0.037 0,-0.02 -0.019,-0.037 -0.037,-0.037 -0.022,0 -0.04,0.017 -0.04,0.037 z m 3.439,-13.315 c -0.044,0.02 -0.026,0.04 -0.051,0.067 -0.025,0.027 -0.058,0.013 -0.058,0.09 0,0.077 0.036,0.046 0.127,0.083 0.091,0.04 0.157,0.053 0.263,-0.07 0.102,-0.124 0.077,-0.274 0.043,-0.274 -0.033,0 -0.04,0.073 -0.077,0.104 -0.039,0.033 -0.199,-0.02 -0.247,0 z m 6.86,2.182 c -0.066,0.021 -0.241,0.014 -0.452,-0.063 -0.215,-0.077 -0.183,-0.04 -0.205,0.084 -0.018,0.123 0.205,0.093 0.39,0.107 0.19,0.01 0.339,0.097 0.423,0.09 0.083,-0.006 0.109,-0.033 0.157,-0.117 0.043,-0.087 0.084,-0.19 0.051,-0.207 -0.032,-0.021 -0.298,0.09 -0.364,0.106 z m -0.992,-0.207 c -0.015,-0.01 -0.139,-0.01 -0.273,0.007 -0.135,0.02 -0.208,0.104 -0.208,0.104 0,0 0.117,-0.007 0.201,0.02 0.084,0.027 0.117,0.11 0.189,0.097 0.069,-0.011 0.128,-0.191 0.091,-0.228 z m 0.299,0.996 c -0.015,0.023 0.007,0.24 0.018,0.267 0.014,0.023 0.183,0.01 0.215,-0.013 0.033,-0.027 0.066,-0.164 0.044,-0.197 -0.018,-0.033 -0.255,-0.107 -0.277,-0.057 z m -0.248,-0.11 c -0.044,-0.013 -0.168,-0.06 -0.259,-0.097 -0.092,-0.04 -0.131,-0.08 -0.259,-0.053 -0.04,0.007 0.245,0.261 0.303,0.317 0.059,0.061 0.073,0.197 0.117,0.254 0.047,0.061 0.139,0.027 0.164,0.007 0.026,-0.02 -0.025,-0.104 -0.059,-0.167 -0.032,-0.067 0.033,-0.251 -0.007,-0.261 z m -2.279,-1.443 c -0.033,0.003 -0.153,0.093 -0.401,0.223 -0.248,0.131 -0.463,0.174 -0.543,0.187 -0.077,0.011 0.081,0.087 0.143,0.098 0.062,0.01 0.149,-0.081 0.186,-0.094 0.037,-0.017 0.35,-0.047 0.54,-0.107 0.193,-0.057 0.387,-0.12 0.488,-0.311 -0.001,0 -0.326,-0.007 -0.413,0.004 z m -2.145,-0.84 c -0.073,-0.007 -0.065,0.007 -0.124,0.054 -0.059,0.047 0.051,0.104 0.073,0.11 0.019,0.007 0.037,0.157 0.069,0.164 0.033,0.007 0.019,-0.04 0.059,-0.06 0.04,-0.02 0.182,0.027 0.189,-0.027 0.007,-0.05 -0.091,-0.11 -0.175,-0.147 -0.083,-0.04 -0.025,-0.087 -0.091,-0.094 z m -0.2,0.254 c -0.029,-0.006 -0.182,0.081 -0.263,0.157 -0.076,0.077 -0.186,0.331 -0.251,0.468 -0.065,0.137 -0.171,0.248 -0.171,0.297 0,0.054 0.073,0.097 0.106,0.08 0.033,-0.02 0.04,-0.177 0.077,-0.267 0.04,-0.09 0.299,-0.317 0.39,-0.424 0.09,-0.103 0.17,-0.294 0.112,-0.311 z m 0.233,0.936 c -0.073,-0.043 -0.113,0.054 -0.229,0.131 -0.117,0.077 -0.201,0.09 -0.208,0.09 -0.007,0 0.065,0.117 0.149,0.11 0.084,-0.006 0.143,-0.03 0.263,-0.104 0.117,-0.07 0.284,-0.09 0.284,-0.09 0,0 -0.157,-0.07 -0.259,-0.137 z m -1.046,0.261 c -0.117,0.006 -0.084,0.063 -0.164,0.137 -0.077,0.07 -0.117,0.147 -0.124,0.271 -0.004,0.123 0.047,0.19 0.117,0.184 0.073,-0.007 0.065,-0.097 0.196,-0.17 0.131,-0.07 0.117,-0.147 0.11,-0.271 -0.008,-0.125 0,-0.158 -0.135,-0.151 z m 0.189,-1.047 c 0,0 -0.12,0.013 -0.189,0.077 -0.073,0.066 -0.197,0.254 -0.234,0.287 -0.04,0.034 -0.164,0.124 -0.157,0.161 0.007,0.04 0.044,0.137 0.117,0.124 0.073,-0.013 0.103,-0.154 0.223,-0.264 0.117,-0.11 0.109,-0.21 0.168,-0.24 0.058,-0.034 0.065,-0.145 0.072,-0.145 z m -1.171,-0.096 c -0.051,0.006 -0.025,0.037 -0.066,0.07 -0.04,0.034 -0.083,0.034 -0.073,0.104 0.015,0.073 0.066,0.15 0.059,0.24 -0.004,0.09 -0.044,0.17 0.091,0.177 0.139,0.007 0.088,-0.228 0.073,-0.294 -0.01,-0.063 -0.025,-0.304 -0.084,-0.297 z m 0.128,0.942 c -0.018,0.011 0.007,0.064 0,0.118 -0.004,0.05 -0.142,0.077 -0.153,0.117 -0.015,0.037 0.044,0.07 0.077,0.077 0.032,0.007 0.208,-0.09 0.248,-0.124 0.037,-0.034 0.025,-0.157 -0.025,-0.188 -0.055,-0.034 -0.139,-0.003 -0.147,0 z M 69.06,46.603 c -0.051,0 -0.026,0.03 -0.063,0.057 -0.04,0.027 -0.029,0.184 -0.007,0.214 0.018,0.033 0.248,0 0.222,0 -0.029,0 -0.022,-0.117 -0.059,-0.124 -0.039,-0.007 -0.039,-0.147 -0.093,-0.147 z m 0.47,1.247 c -0.033,0 -0.015,0.05 -0.033,0.104 -0.019,0.05 -0.084,0.077 -0.051,0.124 0.033,0.047 0.325,-0.006 0.361,-0.013 0.04,-0.007 0.091,-0.097 0.014,-0.09 -0.077,0.007 -0.043,-0.04 -0.131,-0.054 -0.083,-0.015 -0.083,-0.071 -0.16,-0.071 z m -1.065,-0.468 c -0.091,-0.054 -0.295,0.063 -0.364,0.13 -0.073,0.063 -0.073,0.144 -0.091,0.213 -0.019,0.071 -0.15,0.104 -0.215,0.124 -0.066,0.02 -0.069,0.291 -0.099,0.378 -0.025,0.083 -0.077,0.153 -0.043,0.153 0.033,0 0.167,-0.167 0.208,-0.207 0.041,-0.04 0.125,-0.04 0.227,-0.161 0.105,-0.124 0.091,-0.177 0.156,-0.261 0.066,-0.087 0.11,-0.06 0.168,-0.104 0.057,-0.044 0.112,-0.232 0.053,-0.265 z M 68.44,46.346 c -0.044,-0.007 -0.095,0.067 -0.171,0.1 -0.077,0.034 0.04,0.13 -0.077,0.214 -0.117,0.084 -0.117,0.124 0.051,0.117 0.168,-0.006 0.175,-0.027 0.223,-0.07 0.044,-0.047 0.059,-0.08 0.059,-0.184 -0.001,-0.104 -0.005,-0.177 -0.085,-0.177 z m -1.12,-0.532 c -0.044,0.02 -0.011,0.344 0.025,0.384 0.04,0.04 0.142,0.013 0.19,0.006 0.044,-0.006 0.051,-0.083 0.091,-0.167 0.04,-0.087 0.051,-0.074 -0.026,-0.164 -0.079,-0.089 -0.214,-0.085 -0.28,-0.059 z m 1.565,2.099 c -0.142,0 -0.54,0.385 -0.791,0.639 -0.252,0.254 -0.475,0.324 -0.908,0.337 -0.438,0.014 -0.481,0.164 -0.587,0.241 -0.102,0.077 -0.208,0.318 -0.211,0.415 -0.007,0.101 0.095,0.288 0.168,0.397 0.069,0.111 0.167,0.268 0.149,0.558 -0.022,0.294 0.065,0.441 0.175,0.428 0.109,-0.013 0.583,-0.511 0.689,-0.778 0.102,-0.268 0.186,-0.695 0.394,-0.826 0.095,-0.06 0.314,-0.13 0.431,-0.254 0.117,-0.124 0.149,-0.244 0.215,-0.337 0.066,-0.09 0.161,-0.09 0.226,-0.208 0.066,-0.117 0.081,-0.234 0.048,-0.331 -0.035,-0.097 0.093,-0.281 0.002,-0.281 z m -1.189,-0.675 c -0.026,-0.013 -0.365,-0.037 -0.416,0.034 -0.051,0.07 -0.095,0.033 -0.109,0.097 -0.011,0.063 0.033,0.09 0.076,0.201 0.047,0.11 0.007,0.141 0.113,0.13 0.157,-0.014 0.117,-0.15 0.182,-0.277 0.066,-0.131 0.202,-0.162 0.154,-0.185 z m -0.343,-0.682 c -0.04,0 -0.109,0.104 -0.157,0.144 -0.044,0.04 -0.183,0.02 -0.259,0.014 -0.076,-0.007 -0.04,0.077 -0.018,0.13 0.018,0.05 0.044,0.09 0.149,0.083 0.103,-0.006 0.168,-0.073 0.233,-0.156 0.066,-0.084 0.193,-0.111 0.124,-0.144 -0.072,-0.031 -0.014,-0.071 -0.072,-0.071 z M 66,46.192 c -0.025,-0.007 -0.033,0.08 -0.051,0.117 -0.018,0.04 -0.043,0.034 -0.076,0.04 -0.033,0.007 0.007,0.091 0.036,0.117 0.033,0.027 0.073,0.03 0.059,0.117 -0.011,0.083 0.029,0.15 0.062,0.18 0.029,0.034 0.153,0 0.208,0.007 0.051,0.006 0.018,-0.09 -0.022,-0.187 -0.04,-0.097 -0.124,-0.13 -0.124,-0.13 0,0 -0.048,-0.251 -0.092,-0.261 z m 0.496,1.3 c -0.021,-0.026 -0.139,0.007 -0.197,0.041 -0.059,0.03 -0.211,0.013 -0.31,0.013 -0.099,0 0.033,0.083 0.04,0.12 0.003,0.04 -0.015,0.144 0.036,0.137 0.051,-0.007 0.139,0.11 0.204,0.11 0.063,0 -0.029,0.101 0.103,0.09 0.131,-0.003 0.084,0.047 0.149,0.054 0.065,0.007 0.084,-0.083 0.091,-0.174 0.007,-0.093 -0.077,-0.137 -0.117,-0.21 -0.039,-0.07 0.034,-0.138 10e-4,-0.181 z m -0.747,0.618 c -0.065,0 -0.058,0.006 -0.077,0.05 -0.022,0.047 -0.065,0.006 -0.157,0 -0.091,-0.007 -0.124,0.164 -0.19,0.22 -0.065,0.061 -0.116,0.067 -0.182,0.054 -0.066,-0.014 0.051,0.137 0.117,0.167 0.065,0.033 0.098,0.087 0.164,0.094 0.065,0.006 0.065,-0.034 0.168,-0.074 0.105,-0.037 0.201,-0.007 0.292,-0.05 0.091,-0.047 0.24,-0.17 0.233,-0.234 -0.004,-0.067 -0.121,-0.1 -0.193,-0.104 -0.073,-0.005 -0.077,-0.123 -0.175,-0.123 z m -0.515,-0.889 c -0.044,-0.014 -0.117,0.14 -0.219,0.217 -0.106,0.08 -0.19,0.197 -0.197,0.281 -0.007,0.084 0.033,0.144 0.106,0.2 0.069,0.061 0.043,0.248 0.127,0.248 0.084,0 0.157,-0.037 0.215,-0.137 0.058,-0.097 0.157,-0.111 0.149,-0.214 -0.007,-0.104 -0.041,-0.111 -0.102,-0.188 -0.064,-0.079 -0.028,-0.347 -0.079,-0.407 z M 64.72,46.907 c -0.025,-0.013 -0.153,0.014 -0.178,0.064 -0.029,0.054 -0.117,0.074 -0.299,0.054 -0.182,-0.021 -0.149,-0.041 -0.197,-0.171 -0.044,-0.13 -0.135,-0.097 -0.193,-0.097 -0.059,0 0.025,0.11 0.037,0.184 0.014,0.07 -0.037,0.097 -0.044,0.167 -0.007,0.074 0.051,0.08 0.058,0.177 0.007,0.097 0.073,0.147 0.117,0.207 0.044,0.057 0.15,0.071 0.183,0.044 0.033,-0.023 -0.051,-0.09 0.051,-0.104 0.106,-0.01 0.175,-0.077 0.248,-0.147 0.069,-0.073 0.208,-0.137 0.226,-0.164 0.02,-0.027 0.042,-0.19 -0.009,-0.214 z m 0.423,-0.969 c -0.037,0 -0.007,0.261 -0.007,0.307 0,0.043 0.055,0.11 0.087,0.104 0.033,-0.006 0.084,-0.077 0.11,-0.104 0.025,-0.027 0.051,-0.097 0,-0.104 -0.052,-0.007 -0.041,-0.087 -0.041,-0.15 0,-0.067 -0.112,-0.053 -0.149,-0.053 z m -0.449,-0.221 c -0.043,0.006 -0.033,0.067 -0.161,0.104 -0.054,0.017 -0.025,0.184 -0.007,0.217 0.019,0.03 0.081,-0.014 0.117,0.03 0.04,0.046 0.076,0.11 0.131,0.073 0.025,-0.02 0.007,-0.254 0,-0.334 -0.007,-0.077 -0.021,-0.097 -0.08,-0.09 z m -1.225,0.067 c -0.055,-0.054 -0.073,0.07 -0.131,0.11 -0.058,0.037 -0.109,0.057 -0.117,0.16 -0.007,0.104 0.051,0.061 0.051,0.104 0,0.047 -0.018,0.267 0.026,0.301 0.047,0.033 0.051,0.097 0.117,0.097 0.065,0 0.08,-0.104 0.105,-0.157 0.025,-0.05 0.019,-0.057 -0.025,-0.057 -0.047,0 0.018,-0.047 -0.015,-0.104 -0.033,-0.06 -0.131,0.02 -0.135,-0.087 -0.007,-0.104 0.095,-0.104 0.182,-0.174 0.084,-0.07 0.127,-0.077 0.127,-0.13 10e-4,-0.05 -0.097,0.024 -0.185,-0.063 z m -0.24,1.24 c -0.025,0.014 -0.025,0.234 0.037,0.274 0.065,0.036 0.091,0.2 0.121,0.291 0.025,0.09 0.226,0.077 0.251,0.054 0.025,-0.027 -0.033,-0.211 -0.059,-0.351 C 63.554,47.148 63.52,47.078 63.495,47.045 63.469,47.01 63.269,47.004 63.229,47.024 z M 62.05,45.875 c -0.036,-0.007 -0.095,0.006 -0.083,0.144 0.015,0.134 -0.051,0.124 -0.044,0.214 0.003,0.09 0.069,0.214 0.109,0.254 0.037,0.037 0.091,0.117 0.16,0.13 0.073,0.01 0.099,-0.053 0.099,-0.107 0,-0.05 0.073,-0.097 0.091,-0.117 0.019,-0.017 0.091,-0.324 0,-0.298 -0.091,0.027 -0.058,-0.056 -0.175,-0.117 -0.116,-0.06 -0.083,-0.094 -0.157,-0.103 z m -0.445,1.828 c 0.019,0.01 0.04,0.02 0.062,0.03 0.022,0.027 0.044,0.054 0.055,0.06 0.033,0.024 0.073,0.044 0.117,0.057 0.044,0.013 0.069,0.047 0.051,0.047 -0.019,0.003 -0.037,0.003 -0.059,0 -0.025,-0.004 -0.051,-0.02 -0.099,-0.014 -0.051,0.003 -0.047,0.02 -0.021,0.03 0.025,0.01 0.098,0.017 0.073,0.03 -0.022,0.013 -0.022,0.02 -0.037,0.046 -0.015,0.023 0.011,0.047 0.022,0.027 0.007,-0.017 0.036,-0.05 0.077,-0.053 0.044,-0.003 0.069,0.01 0.102,0.02 0.029,0.01 0.073,0.017 0.102,0.01 0.029,-0.01 -0.003,-0.037 -0.003,-0.037 0,0 0.025,0 0.043,-0.017 0.015,-0.013 0.102,-0.043 0.113,-0.073 0.007,-0.034 0.011,-0.08 -0.059,-0.121 -0.069,-0.037 -0.109,-0.083 -0.12,-0.113 -0.007,-0.03 -0.066,-0.147 -0.095,-0.174 -0.025,-0.027 -0.069,-0.05 -0.102,-0.054 -0.029,-0.003 -0.087,-0.04 -0.146,-0.07 -0.055,-0.033 -0.128,-0.073 -0.153,-0.09 -0.025,-0.017 -0.087,-0.041 -0.087,-0.041 0,0 -0.004,-0.037 -0.04,-0.046 -0.037,-0.007 -0.065,0.023 -0.065,0.023 0,0 -0.015,0.014 -0.044,0.017 -0.033,0.003 -0.069,0.013 -0.084,0.034 -0.018,0.016 0.003,0.046 0.018,0.063 0.011,0.017 0.022,0.054 0.055,0.074 0.033,0.023 0.04,0.043 0.069,0.083 0.025,0.04 0.073,0.05 0.117,0.07 0.044,0.023 0.058,0.09 0.058,0.09 0,0 0.033,0.09 0.015,0.093 -0.043,0.007 -0.08,-0.006 -0.08,-0.006 0,0 -0.04,-0.027 -0.058,-0.061 -0.019,-0.033 -0.019,-0.053 -0.037,-0.043 -0.018,0.01 -0.007,0.026 0.007,0.043 0.014,0.017 0.033,0.044 0.033,0.044 0,0 -0.003,0 -0.022,-0.007 -0.015,-0.003 -0.025,-0.04 -0.047,-0.03 -0.021,0.007 0.004,0.037 0.019,0.044 0.018,0.006 0.025,0.01 0.043,0.02 0.015,0.01 0.037,0.017 0.063,0.033 0.021,0.02 0.033,0.04 0.054,0.05 0.029,0.017 0.029,-0.023 0.011,-0.026 -0.029,-0.003 -0.029,-0.02 -0.029,-0.02 0,0 0.033,-0.01 0.069,-0.003 0.025,0.004 0.036,-0.016 0.039,-0.039 z m 1.302,-0.576 c -0.12,-0.006 -0.062,0.047 -0.135,0.047 -0.073,0 -0.131,-0.04 -0.131,0.05 0,0.094 0.117,0.157 0.117,0.294 0,0.137 -0.044,0.248 -0.059,0.428 -0.011,0.184 -0.182,0.261 -0.168,0.324 0.015,0.067 0.215,0.097 0.325,0.144 0.11,0.047 0.175,0.124 0.23,0.13 0.051,0.007 0.036,-0.083 0.036,-0.144 0,-0.057 0.066,-0.043 0.106,-0.104 0.037,-0.06 0.102,-0.117 0.102,-0.167 0,-0.054 -0.149,-0.151 -0.226,-0.341 -0.051,-0.117 -0.08,-0.298 -0.084,-0.421 -0.007,-0.122 -0.01,-0.233 -0.113,-0.24 z m -2.695,-0.511 c -0.04,0.01 0.007,0.063 0,0.127 -0.007,0.067 0.04,0.02 0.059,0.107 0.018,0.083 -0.051,0.134 0.073,0.127 0.065,-0.003 0.116,0.007 0.153,-0.05 0.04,-0.06 0.088,0.021 0.073,-0.09 -0.015,-0.114 -0.04,-0.074 -0.117,-0.17 -0.077,-0.098 -0.161,-0.077 -0.241,-0.051 z m -1.856,-0.321 c -0.055,0 -0.014,0.227 -0.014,0.357 0,0.13 -0.073,0.157 -0.168,0.157 -0.099,0 -0.157,-0.061 -0.237,-0.117 -0.077,-0.061 -0.161,-0.137 -0.317,-0.137 -0.156,0 -0.22,0.055 -0.22,0.085 0,0.033 0.208,0.054 0.27,0.1 0.065,0.044 0.091,0.154 0.15,0.194 0.058,0.037 0.131,-0.04 0.182,-0.006 0.055,0.03 0.106,0.097 0.208,0.104 0.105,0.007 0.157,-0.04 0.189,-0.09 0.033,-0.054 0.226,-0.014 0.325,-0.007 0.098,0.007 0.077,0.111 0.109,0.097 0.033,-0.013 0.081,-0.164 -0.003,-0.18 -0.087,-0.02 -0.014,-0.127 -0.033,-0.198 -0.022,-0.07 -0.204,-0.076 -0.292,-0.11 -0.09,-0.035 -0.105,-0.249 -0.149,-0.249 z m -1.605,0.619 c -0.047,0.013 -0.087,0.151 -0.153,0.151 -0.063,0 -0.059,0.127 0.022,0.187 0.076,0.06 0.117,0.027 0.131,-0.02 0.011,-0.044 0.109,-0.057 0.142,-0.104 0.033,-0.043 0.183,0.013 0.285,0.013 0.106,0 0.026,0.047 0.099,0.05 0.069,0.007 0.084,-0.03 0.127,-0.07 0.048,-0.037 -0.062,-0.15 -0.116,-0.187 -0.051,-0.04 -0.183,-0.007 -0.285,-0.013 -0.102,-0.007 -0.149,-0.037 -0.252,-0.007 z m 13.873,12.028 c 0,0 -0.011,-0.017 0.004,-0.027 0.011,-0.013 0.033,-0.006 0.044,0 0.011,0.01 0.025,0.023 0.021,0.034 -0.003,0.01 -0.014,0.013 -0.036,0.013 -0.022,-0.003 -0.033,-0.02 -0.033,-0.02 z m -1.699,-0.739 c 0,-0.017 0.018,-0.03 0.04,-0.03 0.021,0 0.04,0.013 0.04,0.03 0,0.017 -0.018,0.034 -0.04,0.034 -0.022,0 -0.04,-0.017 -0.04,-0.034 z m -19.289,7.483 h 33.836 v 0.19 H 49.636 v -0.19 z m 9.614,-12.6 c 0,0 0,0.481 0.208,0.662 0.273,0.234 0.416,0.207 0.438,0.187 0.019,-0.017 0,-0.083 0.091,-0.083 0.091,0 0.182,0.214 0.168,0.344 -0.015,0.13 -0.066,0.287 -0.175,0.254 -0.109,-0.034 -0.135,-0.241 -0.135,-0.241 0,0 -0.292,-0.114 -0.456,-0.277 -0.314,-0.314 -0.139,-0.846 -0.139,-0.846 z m 0.682,-0.658 c 0.066,0 0.16,0.087 0.197,0.164 0.066,0.13 -0.007,0.247 -0.018,0.357 -0.015,0.11 -0.015,0.448 -0.131,0.455 -0.117,0.006 -0.117,-0.104 -0.131,-0.228 -0.011,-0.124 0.059,-0.2 0.106,-0.24 0.044,-0.04 0.124,-0.124 0.12,-0.214 -0.003,-0.11 -0.095,-0.14 -0.153,-0.137 -0.084,0.007 -0.186,0.027 -0.179,0.06 0.007,0.05 -0.037,0.097 -0.062,0.097 -0.059,0 -0.099,-0.054 -0.099,-0.13 0,-0.077 0.007,-0.111 0.051,-0.111 0.047,0 0.153,-0.016 0.186,-0.03 0.033,-0.013 0.029,-0.043 0.113,-0.043 z m 5.2,1.36 c 0.055,0.041 0.109,0.174 0.109,0.214 0,0.037 0.015,0.104 0.066,0.13 0.051,0.027 0.084,0.047 0.095,0.071 0.032,0.067 0,0.197 -0.019,0.2 -0.018,0.007 -0.215,-0.043 -0.273,-0.11 -0.058,-0.063 -0.121,-0.201 -0.121,-0.201 0,0 -0.149,0 -0.149,-0.16 0,-0.163 0.226,-0.19 0.292,-0.144 z m 3.093,1.351 c 0,0 0.128,0.037 0.292,0 0.083,-0.02 0.441,-0.157 0.638,-0.15 0.394,0.013 0.624,0.314 0.518,0.391 -0.106,0.077 -0.164,-0.083 -0.164,-0.083 0,0 -0.055,0.086 -0.183,0.04 -0.073,-0.03 -0.113,-0.124 -0.259,-0.157 -0.094,-0.023 -0.387,0.01 -0.591,0.057 -0.087,0.02 -0.226,0.014 -0.259,-0.013 -0.032,-0.025 0.008,-0.085 0.008,-0.085 z m -0.872,-1.448 c 0.157,-0.013 0.193,-0.247 0.233,-0.261 0.041,-0.013 0.15,-0.006 0.15,-0.006 0,0 -0.044,0.207 -0.095,0.284 -0.022,0.033 -0.095,0.087 -0.131,0.157 -0.041,0.07 -0.059,0.214 -0.081,0.221 -0.018,0.006 -0.12,-0.063 -0.16,-0.124 -0.04,-0.057 -0.037,-0.14 -0.087,-0.19 -0.055,-0.053 -0.175,-0.073 -0.201,-0.1 -0.026,-0.027 -0.015,-0.077 -0.004,-0.09 0.015,-0.017 0.161,-0.017 0.208,0.013 0.044,0.033 0.091,0.103 0.168,0.096 z m 6.528,-4.464 c 0,0 0.598,0.398 0.565,1.136 -0.029,0.742 -0.266,0.665 -0.361,0.665 -0.099,0 -0.201,-0.05 -0.237,-0.121 -0.055,-0.113 -0.018,-0.237 -0.018,-0.237 0,0 -0.117,-0.06 -0.099,-0.144 0.022,-0.083 0.106,-0.02 0.106,-0.07 0,-0.087 -0.183,-0.184 -0.106,-0.308 0.08,-0.124 0.299,0.083 0.413,0.033 0.109,-0.053 0.076,-0.254 0.011,-0.441 -0.063,-0.189 -0.274,-0.513 -0.274,-0.513 z m -4.117,1.824 c 0.033,0.013 -0.051,0.241 0.044,0.288 0.098,0.043 0.394,-0.03 0.562,0.027 0.124,0.04 0.375,0.107 0.419,0.144 0.047,0.04 0.022,0.09 0.022,0.09 0,0 -0.106,0.023 -0.15,0.057 -0.047,0.034 -0.109,0.063 -0.167,0.087 -0.058,0.027 -0.204,0.047 -0.204,0.047 l 0.215,-0.137 c 0,0 -0.044,-0.034 -0.08,-0.057 -0.062,-0.04 -0.121,-0.057 -0.121,-0.057 0,0 -0.051,0.321 -0.178,0.321 -0.132,0 -0.245,-0.358 -0.245,-0.358 0,0 -0.157,-0.003 -0.201,-0.09 -0.044,-0.08 -0.007,-0.3 0.011,-0.321 0.014,-0.021 0.073,-0.041 0.073,-0.041 z M 69.752,37.726 c 0.026,0.014 0.011,0.037 0.033,0.064 0.022,0.033 0.153,0.341 0.204,0.408 0.055,0.07 0.171,0.204 0.219,0.264 0.037,0.047 0.11,0.17 0.139,0.208 0.029,0.037 0.098,0.11 0.098,0.11 0,0 0.014,-0.023 0.025,-0.033 0.011,-0.007 0.029,-0.02 0.029,-0.02 0,0 -0.015,-0.037 -0.007,-0.054 0.007,-0.017 0.029,-0.037 0.029,-0.037 0,0 -0.011,-0.023 -0.011,-0.04 0,-0.02 0.018,-0.07 0.029,-0.083 0.011,-0.013 0.032,-0.04 0.04,-0.043 0.007,0 0.014,0.027 0.014,0.043 0.004,0.013 0.018,0.057 0.029,0.077 0.011,0.016 0.037,0.053 0.047,0.077 0.011,0.02 0.033,0.127 0.037,0.19 0.003,0.067 0.069,0.21 0.095,0.241 0.022,0.026 0.083,0.087 0.139,0.087 0.055,-0.003 0.062,-0.037 0.135,-0.047 0.095,-0.014 0.179,0.12 0.193,0.134 0.014,0.017 0.095,0.073 0.095,0.086 0.004,0.027 -0.069,0.01 -0.081,0.01 -0.007,0 -0.047,0.023 -0.083,0.03 -0.037,0.003 -0.062,0.003 -0.117,0.023 -0.051,0.023 -0.066,0.033 -0.102,0.07 -0.047,0.043 -0.146,0.184 -0.193,0.217 -0.066,0.054 -0.211,0.081 -0.281,0.097 -0.07,0.016 -0.157,0.043 -0.204,0.1 -0.044,0.061 -0.128,0.161 -0.153,0.161 -0.044,-0.003 -0.007,-0.094 -0.04,-0.127 -0.029,-0.023 -0.099,-0.003 -0.149,0.03 -0.051,0.03 -0.095,0.046 -0.175,0.05 -0.084,0.003 -0.303,0.003 -0.368,-0.023 -0.113,-0.047 -0.124,-0.13 -0.124,-0.13 0,0 -0.022,-0.033 -0.022,-0.063 0,-0.05 0.022,-0.087 0.022,-0.087 0,0 -0.018,-0.043 -0.018,-0.07 0,-0.04 0.025,-0.07 0.029,-0.07 0,0 -0.008,-0.081 0.033,-0.097 0.043,-0.013 0.083,-0.013 0.142,0.007 0.091,0.03 0.12,0.027 0.157,0.037 0.037,0.01 0.095,0.037 0.127,0.043 0.029,0.007 0.088,0 0.106,0.003 0.018,0.003 0.047,0.02 0.073,0.017 0.021,0 0.065,-0.023 0.083,-0.05 0.018,-0.023 0.015,-0.057 0.011,-0.067 -0.004,-0.014 -0.041,-0.057 -0.055,-0.074 -0.015,-0.017 -0.011,-0.047 -0.011,-0.047 0,0 -0.055,-0.043 -0.076,-0.07 -0.019,-0.026 -0.019,-0.08 -0.019,-0.08 0,0 -0.062,-0.043 -0.073,-0.07 -0.011,-0.026 -0.025,-0.104 -0.025,-0.104 0.003,0 -0.026,-0.003 -0.047,-0.043 -0.022,-0.041 -0.026,-0.127 -0.026,-0.127 0,0 -0.062,-0.057 -0.055,-0.104 0.007,-0.047 0.011,-0.13 0.015,-0.15 0,-0.02 -0.033,-0.083 -0.054,-0.114 -0.019,-0.027 0.011,-0.053 0.003,-0.067 -0.003,-0.013 -0.065,-0.117 -0.062,-0.15 0.003,-0.04 0.051,-0.08 0.051,-0.117 0,-0.04 -0.025,-0.043 -0.029,-0.084 0,-0.043 0.055,-0.077 0.055,-0.103 0,-0.027 -0.025,-0.047 -0.015,-0.087 0.015,-0.05 0.059,-0.06 0.059,-0.06 0,0 -0.003,-0.057 0.014,-0.077 0.019,-0.021 0.052,-0.021 0.066,-0.015 z m -1.203,1.842 c 0.033,-0.003 0.062,0.007 0.098,0.04 0.011,0.01 0.019,0.023 0.029,0.033 0.019,0.017 0.037,0.034 0.037,0.037 0,0.01 -0.033,0.017 -0.047,0.017 -0.011,-0.003 -0.051,-0.003 -0.062,0.007 -0.015,0.01 -0.044,0.017 -0.058,0.073 -0.018,0.07 -0.047,0.1 -0.047,0.124 0,0.03 0.029,0.066 0.058,0.097 0.029,0.033 0.069,0.04 0.124,0.104 0.059,0.063 0.168,0.214 0.241,0.281 0.073,0.064 0.233,0.191 0.273,0.214 0.04,0.023 0.029,0.073 0.011,0.077 -0.011,0.003 -0.019,0.01 -0.04,0.01 -0.026,0 -0.066,-0.01 -0.087,-0.01 -0.022,0 -0.041,0.026 -0.084,0.03 -0.048,0.003 -0.073,-0.023 -0.106,-0.027 -0.029,-0.007 -0.066,0.007 -0.095,-0.003 -0.033,-0.01 -0.066,-0.04 -0.099,-0.05 -0.033,-0.01 -0.084,-0.014 -0.109,-0.027 -0.026,-0.01 -0.047,-0.047 -0.069,-0.063 -0.026,-0.02 -0.059,-0.017 -0.087,-0.037 -0.029,-0.017 -0.037,-0.06 -0.059,-0.077 -0.022,-0.017 -0.051,-0.027 -0.073,-0.05 -0.026,-0.02 -0.029,-0.057 -0.055,-0.08 -0.029,-0.024 -0.069,-0.064 -0.088,-0.044 -0.022,0.02 -0.018,0.04 -0.018,0.054 0.004,0.01 0.018,0.046 0.026,0.077 0.003,0.03 0.018,0.077 0.021,0.09 0.004,0.013 0.029,0.07 0.026,0.097 0,0.026 -0.004,0.046 -0.011,0.053 -0.011,0.007 -0.022,0.013 -0.044,0.017 -0.022,0 -0.059,-0.043 -0.083,-0.043 -0.026,0 -0.055,0.037 -0.099,0.034 -0.043,-0.003 -0.032,-0.04 -0.04,-0.043 -0.014,-0.003 -0.076,0.01 -0.102,-0.014 -0.037,-0.03 -0.029,-0.053 -0.044,-0.073 -0.011,-0.017 -0.062,-0.007 -0.088,-0.03 -0.021,-0.026 -0.014,-0.06 -0.033,-0.08 -0.015,-0.017 -0.084,-0.023 -0.105,-0.054 -0.019,-0.033 0.011,-0.077 0,-0.094 -0.011,-0.02 -0.033,-0.043 -0.033,-0.067 0,-0.023 0.022,-0.043 0.022,-0.063 0,-0.02 -0.033,-0.061 -0.025,-0.087 0.007,-0.024 0.021,-0.027 0.021,-0.041 0.004,-0.013 -0.029,-0.04 -0.021,-0.053 0.011,-0.027 0.015,-0.074 0.037,-0.074 0.021,0.003 0.083,0.013 0.153,0.05 0.065,0.033 0.12,0.07 0.171,0.067 0.055,0 0.073,-0.043 0.073,-0.043 0,0 -0.066,-0.027 -0.087,-0.05 -0.04,-0.04 -0.026,-0.08 -0.029,-0.093 -0.007,-0.014 -0.047,-0.017 -0.08,-0.057 -0.037,-0.05 -0.015,-0.087 -0.026,-0.107 -0.015,-0.023 -0.055,-0.014 -0.066,-0.054 -0.014,-0.04 0.007,-0.063 -0.003,-0.097 -0.015,-0.037 -0.058,-0.057 -0.073,-0.093 -0.019,-0.047 0.003,-0.097 -0.004,-0.124 -0.007,-0.027 -0.047,-0.053 -0.051,-0.1 -0.004,-0.047 0.011,-0.047 0.011,-0.06 0.003,-0.01 -0.033,-0.04 -0.033,-0.087 0.003,-0.044 0.022,-0.064 0.025,-0.087 0,-0.027 -0.04,-0.07 -0.04,-0.107 0.004,-0.04 0.018,-0.06 0.018,-0.08 0,-0.02 -0.018,-0.071 -0.003,-0.101 0.015,-0.026 0.033,-0.033 0.033,-0.033 0,0 -0.004,-0.061 0.011,-0.09 0.011,-0.03 0.037,-0.064 0.048,-0.057 0.011,0.007 0.025,0.084 0.04,0.11 0.014,0.023 0.055,0.094 0.062,0.121 0.007,0.026 0.043,0.113 0.077,0.164 0.033,0.047 0.095,0.127 0.113,0.15 0.022,0.027 0.044,0.083 0.062,0.113 0.022,0.027 0.095,0.134 0.113,0.161 0.014,0.027 0.062,0.144 0.087,0.187 0.026,0.043 0.139,0.167 0.23,0.167 0.093,-0.005 0.086,-0.049 0.155,-0.052 z"
   id="path3065"
   inkscape:connector-curvature="0"
   style="fill:#010101" />
					<path
   d="m 50.986,60.824 c 0.726,0 1.28,0.354 1.28,0.979 0,0.645 -0.598,1.053 -1.229,1.053 -0.142,0 -0.281,-0.017 -0.408,-0.081 0.481,-0.026 0.999,-0.324 0.999,-0.859 0,-0.494 -0.346,-0.688 -0.791,-0.688 -0.135,0 -0.267,0.01 -0.394,0.033 v 2.523 c 0,0.311 -0.004,0.535 0.292,0.702 v 0.017 h -1.112 v -0.017 c 0.284,-0.1 0.251,-0.515 0.251,-0.766 v -2.108 c 0,-0.25 0.033,-0.659 -0.248,-0.772 v -0.016 h 1.36"
   id="path3067"
   inkscape:connector-curvature="0"
   style="fill:#010101" />
					<path
   d="m 52.536,62.348 c 0,-0.194 0.029,-0.498 -0.182,-0.579 v -0.01 h 0.795 v 0.01 c -0.211,0.081 -0.186,0.388 -0.186,0.579 v 1.574 c 0,0.187 -0.025,0.491 0.186,0.572 v 0.01 h -0.795 v -0.01 c 0.208,-0.077 0.182,-0.384 0.182,-0.572 v -1.574"
   id="path3069"
   inkscape:connector-curvature="0"
   style="fill:#010101" />
					<path
   d="m 54.421,63.962 c 0,0.237 -0.007,0.401 0.215,0.531 v 0.01 h -0.828 v -0.01 c 0.211,-0.081 0.186,-0.384 0.186,-0.572 v -1.865 h -0.368 c -0.179,0 -0.369,0.047 -0.497,0.167 h -0.014 l 0.149,-0.495 h 0.011 c 0.051,0.02 0.106,0.02 0.157,0.03 h 0.105 1.557 c 0.073,0 0.139,-0.007 0.193,-0.03 H 55.3 l -0.131,0.495 h -0.015 c -0.055,-0.144 -0.223,-0.167 -0.357,-0.167 h -0.375 v 1.906"
   id="path3071"
   inkscape:connector-curvature="0"
   style="fill:#010101" />
					<path
   d="m 56.697,63.962 c 0,0.237 -0.007,0.401 0.215,0.531 v 0.01 h -0.828 v -0.01 c 0.211,-0.081 0.186,-0.384 0.186,-0.572 v -1.865 h -0.368 c -0.179,0 -0.368,0.047 -0.496,0.167 h -0.015 l 0.146,-0.495 h 0.015 c 0.051,0.02 0.102,0.02 0.157,0.03 h 0.106 1.557 c 0.069,0 0.139,-0.007 0.193,-0.03 h 0.011 l -0.135,0.495 H 57.43 c -0.054,-0.144 -0.222,-0.167 -0.357,-0.167 h -0.375 v 1.906"
   id="path3073"
   inkscape:connector-curvature="0"
   style="fill:#010101" />
					<path
   d="m 59.253,62.21 c -0.161,-0.17 -0.42,-0.271 -0.657,-0.271 -0.237,0 -0.536,0.094 -0.536,0.388 0,0.585 1.437,0.575 1.437,1.363 0,0.455 -0.471,0.882 -1.12,0.882 -0.255,0 -0.51,-0.04 -0.748,-0.127 L 57.508,63.91 c 0.245,0.217 0.587,0.354 0.912,0.354 0.241,0 0.598,-0.144 0.598,-0.441 0,-0.665 -1.437,-0.548 -1.437,-1.451 0,-0.534 0.54,-0.738 1.05,-0.738 0.208,0 0.419,0.03 0.62,0.094 v 0.482"
   id="path3075"
   inkscape:connector-curvature="0"
   style="fill:#010101" />
					<path
   d="M 60.325,64.169 V 63.14 l 0.292,-0.017 c 0.369,-0.02 0.762,0.154 0.762,0.558 0,0.397 -0.346,0.555 -0.689,0.524 l -0.365,-0.036 m -0.423,-0.254 c 0,0.194 0.022,0.498 -0.186,0.578 v 0.01 h 0.689 c 0.313,0 0.642,0.014 0.937,-0.127 0.277,-0.133 0.5,-0.411 0.5,-0.732 0,-0.408 -0.307,-0.658 -0.682,-0.738 0.241,-0.104 0.419,-0.264 0.419,-0.542 0,-0.375 -0.321,-0.605 -0.872,-0.605 h -0.992 v 0.01 c 0.215,0.081 0.186,0.385 0.186,0.572 v 1.574 l 10e-4,0 z m 0.423,-1.05 v -0.818 l 0.281,-0.03 c 0.251,-0.027 0.518,0.124 0.518,0.415 0,0.341 -0.386,0.434 -0.66,0.434 h -0.139 z"
   id="path3077"
   inkscape:connector-curvature="0"
   style="fill:#010101" />
					<path
   d="m 63.961,64.229 c -0.183,0.241 -0.525,0.341 -0.817,0.341 -0.277,0 -0.569,-0.087 -0.755,-0.291 -0.222,-0.244 -0.215,-0.521 -0.215,-0.822 v -1.116 c 0,-0.187 0.033,-0.491 -0.182,-0.572 v -0.01 h 0.795 v 0.01 c -0.211,0.081 -0.186,0.385 -0.186,0.572 v 1.116 c 0,0.555 0.233,0.812 0.664,0.812 0.233,0 0.474,-0.094 0.609,-0.291 0.095,-0.124 0.087,-0.231 0.087,-0.381 V 62.34 c 0,-0.187 0.026,-0.491 -0.182,-0.572 v -0.01 h 0.791 l 0.007,0.01 c -0.215,0.081 -0.189,0.385 -0.189,0.579 v 1.574 c 0,0.187 -0.025,0.491 0.189,0.572 v 0.01 h -0.616 v -0.274"
   id="path3079"
   inkscape:connector-curvature="0"
   style="fill:#010101" />
					<path
   d="m 65.825,61.759 c 0.558,0 0.864,0.291 0.864,0.672 0,0.364 -0.321,0.655 -0.664,0.732 l 0.602,0.758 c 0.175,0.214 0.438,0.431 0.675,0.582 h -0.383 c -0.222,0 -0.361,-0.053 -0.485,-0.207 l -0.51,-0.632 -0.383,-0.588 c 0.335,-0.05 0.722,-0.204 0.722,-0.595 0,-0.301 -0.259,-0.478 -0.537,-0.464 -0.098,0.003 -0.189,0.017 -0.284,0.033 v 1.872 c 0,0.19 -0.026,0.495 0.186,0.571 v 0.01 h -0.795 v -0.01 c 0.211,-0.077 0.182,-0.384 0.182,-0.571 v -1.574 c 0,-0.194 0.029,-0.498 -0.182,-0.579 v -0.01 h 0.992"
   id="path3081"
   inkscape:connector-curvature="0"
   style="fill:#010101" />
					<path
   d="M 69.388,62.197 H 69.377 C 69.206,62 68.888,61.94 68.633,61.94 c -0.649,0 -1.146,0.435 -1.146,1.12 0,0.688 0.533,1.206 1.192,1.206 0.193,0 0.394,-0.027 0.58,-0.08 v -0.615 c 0,-0.194 -0.003,-0.405 -0.193,-0.481 v -0.01 h 0.638 v 0.01 c -0.018,0.054 -0.018,0.121 -0.018,0.184 v 0.979 c 0,0.063 -0.003,0.134 0.018,0.193 -0.332,0.064 -0.656,0.127 -0.996,0.127 -1.068,0 -1.699,-0.598 -1.699,-1.454 0,-0.916 0.715,-1.484 1.725,-1.484 0.219,0 0.438,0.023 0.653,0.07 v 0.492"
   id="path3083"
   inkscape:connector-curvature="0"
   style="fill:#010101" />
					<path
   d="m 70.511,63.163 v 0.758 c 0,0.187 -0.022,0.491 0.186,0.572 v 0.01 h -0.795 v -0.01 c 0.211,-0.081 0.186,-0.384 0.186,-0.572 V 62.34 c 0,-0.187 0.029,-0.491 -0.186,-0.572 v -0.01 h 0.795 v 0.01 c -0.208,0.081 -0.186,0.385 -0.186,0.579 v 0.518 h 1.51 v -0.518 c 0,-0.194 0.029,-0.498 -0.186,-0.579 v -0.01 h 0.799 v 0.01 c -0.211,0.081 -0.186,0.385 -0.186,0.572 v 1.581 c 0,0.187 -0.025,0.491 0.186,0.572 v 0.01 h -0.799 v -0.01 c 0.215,-0.081 0.186,-0.384 0.186,-0.572 v -0.758 h -1.51"
   id="path3085"
   inkscape:connector-curvature="0"
   style="fill:#010101" />
					<path
   d="m 74.402,64.503 2.024,-3.218 -0.948,-0.057 c -0.347,-0.023 -0.551,0.05 -0.839,0.241 H 74.62 l 0.285,-0.645 h 2.473 l -2.013,3.211 1.174,0.067 c 0.408,0.023 0.762,-0.1 1.109,-0.308 h 0.014 l -0.313,0.708 h -2.947"
   id="path3087"
   inkscape:connector-curvature="0"
   style="fill:#010101" />
					<path
   d="m 78.947,61.95 c 0.656,0 1.039,0.598 1.039,1.216 0,0.632 -0.401,1.1 -1.032,1.1 -0.653,0 -1.061,-0.608 -1.061,-1.203 0,-0.639 0.408,-1.113 1.054,-1.113 m 0.029,-0.304 c -0.872,-0.024 -1.557,0.651 -1.557,1.457 0,0.869 0.693,1.47 1.513,1.47 0.828,0 1.528,-0.628 1.528,-1.494 0,-0.762 -0.613,-1.44 -1.484,-1.433 z"
   id="path3089"
   inkscape:connector-curvature="0"
   style="fill:#010101" />
					<path
   d="m 82.017,61.95 c 0.657,0 1.043,0.598 1.043,1.216 0,0.632 -0.405,1.1 -1.036,1.1 -0.649,0 -1.061,-0.608 -1.061,-1.203 0,-0.639 0.412,-1.113 1.054,-1.113 m 0.029,-0.304 c -0.872,-0.024 -1.557,0.651 -1.557,1.457 0,0.869 0.693,1.47 1.517,1.47 0.824,0 1.524,-0.628 1.524,-1.494 0.001,-0.762 -0.612,-1.44 -1.484,-1.433 z"
   id="path3091"
   inkscape:connector-curvature="0"
   style="fill:#010101" />
					<path
   d="m 49.589,67.738 c 0.128,0 0.223,0.04 0.292,0.104 0.077,0.067 0.113,0.164 0.113,0.261 0,0.097 -0.025,0.184 -0.08,0.271 -0.051,0.08 -0.131,0.157 -0.244,0.24 -0.066,0.047 -0.15,0.097 -0.263,0.151 -0.179,-0.241 -0.267,-0.435 -0.267,-0.609 0,-0.12 0.044,-0.227 0.117,-0.297 0.081,-0.077 0.201,-0.12 0.328,-0.12 h 0.004 m 1.627,2.432 c -0.073,0.067 -0.168,0.107 -0.285,0.107 -0.172,0 -0.303,-0.087 -0.496,-0.278 0.219,-0.217 0.354,-0.501 0.408,-0.795 0.055,-0.221 0.15,-0.251 0.347,-0.251 V 68.85 h -0.806 v 0.104 c 0.197,0 0.273,0.034 0.27,0.177 -0.011,0.268 -0.121,0.542 -0.328,0.755 -0.314,-0.338 -0.58,-0.668 -0.813,-0.982 0.105,-0.054 0.215,-0.11 0.302,-0.164 0.149,-0.093 0.263,-0.184 0.336,-0.281 0.087,-0.113 0.12,-0.23 0.12,-0.347 0,-0.147 -0.073,-0.277 -0.193,-0.364 -0.117,-0.087 -0.284,-0.144 -0.5,-0.144 -0.211,0 -0.393,0.06 -0.521,0.167 -0.128,0.107 -0.201,0.257 -0.201,0.441 0,0.204 0.131,0.441 0.295,0.679 -0.197,0.1 -0.35,0.187 -0.449,0.294 -0.142,0.154 -0.208,0.321 -0.208,0.531 0,0.234 0.113,0.435 0.306,0.562 0.157,0.103 0.368,0.16 0.646,0.16 0.317,0 0.576,-0.097 0.784,-0.267 0.259,0.214 0.452,0.267 0.62,0.267 0.219,0 0.368,-0.093 0.448,-0.18 L 51.216,70.171 z M 48.819,69.69 c 0,-0.164 0.051,-0.311 0.179,-0.431 0.069,-0.077 0.153,-0.144 0.259,-0.207 0.248,0.344 0.525,0.699 0.835,1.013 -0.164,0.14 -0.365,0.231 -0.609,0.231 -0.179,0 -0.351,-0.051 -0.478,-0.154 -0.124,-0.107 -0.186,-0.264 -0.186,-0.444 V 69.69 z"
   id="path3093"
   inkscape:connector-curvature="0"
   style="fill:#010101" />
					<path
   d="m 53.783,66.699 c 0.726,0 1.28,0.351 1.28,0.976 0,0.645 -0.598,1.053 -1.232,1.053 -0.139,0 -0.277,-0.017 -0.405,-0.077 0.478,-0.03 0.999,-0.324 0.999,-0.862 0,-0.492 -0.347,-0.689 -0.795,-0.689 -0.135,0 -0.263,0.014 -0.39,0.034 v 2.523 c 0,0.314 -0.007,0.535 0.292,0.705 v 0.017 h -1.116 v -0.017 c 0.288,-0.104 0.255,-0.515 0.255,-0.769 v -2.106 c 0,-0.254 0.033,-0.662 -0.248,-0.772 v -0.017 h 1.36"
   id="path3095"
   inkscape:connector-curvature="0"
   style="fill:#010101" />
					<path
   d="m 56.689,66.699 c 0.726,0 1.28,0.351 1.28,0.976 0,0.645 -0.599,1.053 -1.229,1.053 -0.142,0 -0.281,-0.017 -0.409,-0.077 0.481,-0.03 0.999,-0.324 0.999,-0.862 0,-0.492 -0.346,-0.689 -0.791,-0.689 -0.135,0 -0.263,0.014 -0.394,0.034 v 2.523 c 0,0.314 -0.003,0.535 0.292,0.705 v 0.017 h -1.112 v -0.017 c 0.284,-0.104 0.251,-0.515 0.251,-0.769 v -2.106 c 0,-0.254 0.033,-0.662 -0.248,-0.772 v -0.017 h 1.361"
   id="path3097"
   inkscape:connector-curvature="0"
   style="fill:#010101" />
					<path
   d="m 61.292,67.287 h -0.019 c -0.226,-0.264 -0.652,-0.344 -0.995,-0.344 -0.872,0 -1.536,0.582 -1.536,1.5 0,0.919 0.715,1.614 1.597,1.614 0.259,0 0.529,-0.033 0.781,-0.107 v -0.822 c 0,-0.264 -0.007,-0.542 -0.259,-0.645 v -0.017 h 0.856 v 0.017 c -0.029,0.066 -0.029,0.16 -0.029,0.244 v 1.313 c 0,0.083 -0.007,0.177 0.029,0.257 -0.448,0.083 -0.886,0.17 -1.338,0.17 -1.43,0 -2.275,-0.799 -2.275,-1.945 0,-1.227 0.956,-1.992 2.309,-1.992 0.299,0 0.587,0.033 0.879,0.097 v 0.66"
   id="path3099"
   inkscape:connector-curvature="0"
   style="fill:#010101" />
					<path
   d="m 65.446,68.581 h -1.102 l 0.555,-1.407 0.547,1.407 m 0.16,0.414 0.302,0.789 c 0.153,0.391 0.197,0.455 -0.077,0.578 v 0.017 h 1.146 V 70.362 C 66.66,70.198 66.558,69.884 66.43,69.567 l -1.164,-2.868 h -0.882 v 0.017 c 0.266,0.084 0.16,0.317 0.083,0.518 l -0.934,2.333 c -0.124,0.317 -0.219,0.631 -0.543,0.795 v 0.017 h 1.028 v -0.017 c -0.27,-0.104 -0.229,-0.264 -0.113,-0.578 l 0.292,-0.789 h 1.409 l 0,0 z"
   id="path3101"
   inkscape:connector-curvature="0"
   style="fill:#010101" />
					<path
   d="m 68.203,70.138 c -0.631,0 -1.068,-0.544 -1.068,-1.236 0,-0.558 0.379,-1.086 1.047,-1.086 0.7,0 1.061,0.628 1.061,1.22 -10e-4,0.628 -0.416,1.102 -1.04,1.102 m 2.079,0.789 c -0.489,0 -0.959,-0.398 -1.306,-0.715 0.456,-0.217 0.74,-0.758 0.74,-1.26 0,-0.869 -0.689,-1.444 -1.51,-1.444 -0.824,0 -1.55,0.595 -1.55,1.467 0,0.846 0.664,1.471 1.477,1.471 0.117,0 0.23,-0.017 0.343,-0.043 0.321,0.261 0.919,0.742 1.335,0.742 0.193,0 0.387,-0.081 0.529,-0.217 h -0.058 l 0,-10e-4 z"
   id="path3103"
   inkscape:connector-curvature="0"
   style="fill:#010101" />
					<path
   d="m 71.792,70.102 c -0.186,0.244 -0.529,0.344 -0.824,0.344 -0.281,0 -0.577,-0.09 -0.766,-0.294 -0.223,-0.241 -0.216,-0.521 -0.216,-0.822 v -1.113 c 0,-0.19 0.029,-0.495 -0.186,-0.572 v -0.013 h 0.802 v 0.013 c -0.212,0.077 -0.186,0.381 -0.186,0.572 v 1.113 c 0,0.555 0.237,0.815 0.671,0.815 0.237,0 0.478,-0.097 0.617,-0.294 0.091,-0.124 0.087,-0.227 0.087,-0.378 v -1.256 c 0,-0.19 0.025,-0.495 -0.186,-0.572 v -0.013 h 0.802 l 0.004,0.013 c -0.215,0.077 -0.19,0.381 -0.19,0.575 v 1.574 c 0,0.188 -0.025,0.491 0.19,0.572 v 0.013 h -0.62 l 0.001,-0.277"
   id="path3105"
   inkscape:connector-curvature="0"
   style="fill:#010101" />
					<path
   d="M 74.144,69.025 H 73.32 l 0.416,-1.063 0.408,1.063 m 0.12,0.31 0.227,0.595 c 0.113,0.294 0.146,0.341 -0.058,0.435 v 0.013 h 0.853 v -0.013 c -0.237,-0.124 -0.31,-0.358 -0.409,-0.599 l -0.868,-2.165 h -0.66 v 0.013 c 0.201,0.063 0.124,0.241 0.066,0.394 l -0.7,1.758 c -0.091,0.241 -0.161,0.475 -0.405,0.598 v 0.013 h 0.77 v -0.013 c -0.201,-0.077 -0.172,-0.197 -0.084,-0.435 l 0.219,-0.595 1.049,10e-4 0,0 z"
   id="path3107"
   inkscape:connector-curvature="0"
   style="fill:#010101" />
					<path
   d="m 76.266,67.602 c 0.562,0 0.868,0.297 0.868,0.681 0,0.371 -0.325,0.662 -0.667,0.742 l 0.602,0.762 c 0.175,0.221 0.438,0.438 0.678,0.592 H 77.36 c -0.219,0 -0.357,-0.057 -0.481,-0.21 l -0.51,-0.638 -0.383,-0.595 c 0.332,-0.05 0.722,-0.207 0.722,-0.601 0,-0.305 -0.259,-0.482 -0.54,-0.468 -0.095,0.003 -0.19,0.017 -0.285,0.033 v 1.888 c 0,0.194 -0.025,0.501 0.19,0.579 v 0.013 h -0.799 v -0.013 c 0.211,-0.077 0.183,-0.388 0.183,-0.579 v -1.591 c 0,-0.194 0.029,-0.501 -0.183,-0.581 v -0.014 l 0.992,0"
   id="path3109"
   inkscape:connector-curvature="0"
   style="fill:#010101" />
					<path
   d="m 77.703,68.196 c 0,-0.193 0.029,-0.501 -0.183,-0.581 v -0.013 h 0.792 v 0.013 c -0.208,0.08 -0.183,0.394 -0.183,0.581 v 1.591 c 0,0.19 -0.025,0.498 0.183,0.578 v 0.013 H 77.52 v -0.013 c 0.208,-0.077 0.183,-0.388 0.183,-0.578 v -1.591"
   id="path3111"
   inkscape:connector-curvature="0"
   style="fill:#010101" />
					<path
   d="m 80.522,70.098 c -0.183,0.248 -0.525,0.348 -0.817,0.348 -0.277,0 -0.569,-0.09 -0.758,-0.294 -0.219,-0.248 -0.212,-0.528 -0.212,-0.832 v -1.126 c 0,-0.191 0.029,-0.498 -0.182,-0.578 v -0.014 h 0.792 v 0.014 c -0.208,0.08 -0.183,0.388 -0.183,0.578 v 1.126 c 0,0.561 0.233,0.822 0.664,0.822 0.234,0 0.471,-0.097 0.609,-0.294 0.091,-0.127 0.087,-0.234 0.087,-0.384 v -1.27 c 0,-0.19 0.025,-0.498 -0.183,-0.578 v -0.013 h 0.792 l 0.003,0.013 c -0.211,0.08 -0.186,0.388 -0.186,0.581 v 1.591 c 0,0.19 -0.025,0.498 0.186,0.578 v 0.013 h -0.612 v -0.281"
   id="path3113"
   inkscape:connector-curvature="0"
   style="fill:#010101" />
					<path
   d="m 83.818,67.869 c 0.033,-0.087 0.063,-0.174 0.063,-0.261 v -0.006 h 0.726 v 0.013 c -0.102,0.03 -0.131,0.154 -0.131,0.251 l 0.273,2.068 c 0.026,0.198 0.048,0.311 0.215,0.432 v 0.013 h -0.806 v -0.013 c 0.146,-0.047 0.171,-0.174 0.171,-0.317 l -0.237,-2.032 -0.938,2.416 c -0.208,-0.16 -0.266,-0.274 -0.364,-0.511 l -0.795,-1.902 -0.237,1.815 c -0.033,0.257 -0.062,0.441 0.131,0.531 v 0.013 H 81.21 v -0.013 c 0.175,-0.157 0.201,-0.364 0.234,-0.591 l 0.237,-1.765 c 0.018,-0.12 0.062,-0.287 -0.127,-0.394 v -0.013 h 0.729 v 0.006 c 0,0.067 0.033,0.13 0.059,0.19 l 0.784,1.858 0.692,-1.788"
   id="path3115"
   inkscape:connector-curvature="0"
   style="fill:#010101" />
				</g>
			</g>
		</g>
	</g>
</g>
</svg>